<?xml version="1.0" encoding="UTF-8" standalone="no"?>
<svg
   xmlns:dc="http://purl.org/dc/elements/1.1/"
   xmlns:cc="http://creativecommons.org/ns#"
   xmlns:rdf="http://www.w3.org/1999/02/22-rdf-syntax-ns#"
   xmlns:svg="http://www.w3.org/2000/svg"
   xmlns="http://www.w3.org/2000/svg"
   xmlns:sodipodi="http://sodipodi.sourceforge.net/DTD/sodipodi-0.dtd"
   xmlns:inkscape="http://www.inkscape.org/namespaces/inkscape"
   viewBox="0 0 100 125"
   version="1.1"
   x="0px"
   y="0px"
   id="svg260"
   sodipodi:docname="noun_Euro_1194144.svg"
   inkscape:version="0.92.3 (unknown)">
  <metadata
     id="metadata266">
    <rdf:RDF>
      <cc:Work
         rdf:about="">
        <dc:format>image/svg+xml</dc:format>
        <dc:type
           rdf:resource="http://purl.org/dc/dcmitype/StillImage" />
      </cc:Work>
    </rdf:RDF>
  </metadata>
  <defs
     id="defs264" />
  <sodipodi:namedview
     pagecolor="#ffffff"
     bordercolor="#666666"
     borderopacity="1"
     objecttolerance="10"
     gridtolerance="10"
     guidetolerance="10"
     inkscape:pageopacity="0"
     inkscape:pageshadow="2"
     inkscape:window-width="1920"
     inkscape:window-height="970"
     id="namedview262"
     showgrid="false"
     inkscape:zoom="1.888"
     inkscape:cx="50"
     inkscape:cy="41.313559"
     inkscape:window-x="0"
     inkscape:window-y="27"
     inkscape:window-maximized="1"
     inkscape:current-layer="svg260" />
  <title
     id="title246">45</title>
  <desc
     id="desc248">Created with Sketch.</desc>
  <g
     stroke="none"
     stroke-width="1"
     fill="none"
     fill-rule="evenodd"
     id="g254">
    <g
       fill="#000000"
       id="g252">
      <path
         d="M52.5718288,55.4364327 C53.6408949,55.3592398 54.443035,54.4303899 54.3698833,53.3590448 C54.296537,52.2873099 53.368716,51.4779532 52.2990661,51.5473489 C52.2541245,51.5506628 47.8463424,51.8075828 45.1881712,49.3118713 C44.8163813,48.9629435 44.4961479,48.5754191 44.2245525,48.1496881 L49.9136576,48.1496881 C50.9879767,48.1496881 51.8591829,47.2769786 51.8591829,46.2003704 C51.8591829,45.1239571 50.9879767,44.2510526 49.9136576,44.2510526 L43.1082101,44.2510526 C43.0980934,44.044425 43.0910895,43.8344834 43.0910895,43.6183041 C43.0910895,43.1399415 43.1161868,42.6853606 43.1665759,42.2531969 L49.9136576,42.2531969 C50.9879767,42.2531969 51.8591829,41.3804873 51.8591829,40.3038791 C51.8591829,39.2274659 50.9879767,38.3545614 49.9136576,38.3545614 L44.7755253,38.3545614 C44.9058755,38.2060234 45.0422568,38.0617739 45.1881712,37.9247368 C47.8352529,35.4399415 52.2179377,35.6839961 52.2982879,35.6892593 C53.3654086,35.7619688 54.2957588,34.9563158 54.3728016,33.884386 C54.4496498,32.8107018 53.6434241,31.8775634 52.5718288,31.8001754 C52.324358,31.7828265 46.4683268,31.4056335 42.5525681,35.0565107 C41.5478988,35.9933528 40.7691051,37.0962768 40.2146304,38.3545614 L38.1397276,38.3545614 C37.0654086,38.3545614 36.1942023,39.2274659 36.1942023,40.3038791 C36.1942023,41.3804873 37.0654086,42.2531969 38.1397276,42.2531969 L39.2574319,42.2531969 C39.2196887,42.6962768 39.2000389,43.1508577 39.2000389,43.6183041 C39.2000389,43.8319493 39.2045136,44.0426706 39.2124903,44.2510526 L38.1397276,44.2510526 C37.0654086,44.2510526 36.1942023,45.1239571 36.1942023,46.2003704 C36.1942023,47.2769786 37.0654086,48.1496881 38.1397276,48.1496881 L39.9247471,48.1496881 C40.4821401,49.7169396 41.3574319,51.0658674 42.5525681,52.1800975 C45.741284,55.1535867 50.2171595,55.4553411 51.9025681,55.4553411 C52.2866148,55.4553411 52.5259144,55.4397466 52.5718288,55.4364327 M95.9203696,73.1396296 C95.7865175,73.7610721 95.4055837,74.2708187 94.8481907,74.5745224 L75.7590856,84.9792008 C74.7760117,85.5148733 73.7791245,86.0676998 72.7699805,86.6273489 C64.2983852,91.3252047 54.6983852,96.6517154 45.5507198,95.8331969 L12.6312646,92.8938207 C12.5738716,92.8887524 12.5160895,92.8862183 12.4585019,92.8862183 L3.89118677,92.8862183 L3.89118677,77.5875828 L12.4585019,77.5875828 C12.9178405,77.5875828 13.3625875,77.4246199 13.7135603,77.1277388 C13.7816537,77.0702339 20.6061673,71.3599025 28.9131712,69.812729 C31.3009144,69.3676998 33.5871012,69.315653 35.6314591,69.4632164 C35.949358,69.492846 36.266284,69.5211111 36.5812646,69.5464522 C41.0217315,70.012729 44.0997471,71.3534698 44.1435214,71.372963 C44.3939105,71.4858285 44.6653113,71.5437232 44.9396304,71.5437232 L61.0139494,71.5437232 C61.0190078,71.5439181 61.0240661,71.5437232 61.0291245,71.5437232 L64.323677,71.5437232 C65.4283463,71.5437232 66.327179,72.444308 66.327179,73.5511306 C66.327179,74.5599025 65.5738716,75.4160429 64.5750389,75.5425536 L40.006751,78.6548343 C39.0970233,78.770039 38.3909922,79.5061014 38.312393,80.421306 C38.2334047,81.3367057 38.8034436,82.1829045 39.6800973,82.4523002 L50.1143385,85.6597076 C50.2246498,85.6934308 50.3376848,85.7174074 50.4524708,85.7314425 C59.0157004,86.7626316 68.6174514,84.2415789 79.8059728,78.0209162 L92.8388521,70.7741326 C93.7701751,70.292846 94.9016926,70.5495712 95.5351556,71.3891423 C95.9174514,71.8963548 96.0544163,72.5181871 95.9203696,73.1396296 L95.9203696,73.1396296 Z M16.1991634,51.8731579 C16.1991634,42.98154 23.9657004,33.4733528 29.5304864,27.8031774 C29.5431323,27.9068811 29.5602529,28.0062963 29.575428,28.1074659 C29.5867121,28.1819298 29.5962451,28.2577583 29.6085019,28.3306628 C29.6318482,28.4684795 29.6592802,28.6022027 29.6869066,28.735731 C29.6978016,28.7881676 29.706751,28.8427485 29.7184241,28.8944055 C29.7588911,29.0772515 29.803249,29.2560039 29.8513035,29.4304678 C29.8645331,29.4778363 29.8797082,29.5226706 29.8931323,29.5694542 C29.9299027,29.69577 29.9666732,29.8216959 30.0069455,29.9435283 C30.0287354,30.0096101 30.0526654,30.072768 30.0756226,30.1376803 C30.1104475,30.2369006 30.1450778,30.3363158 30.1822374,30.4326121 C30.2088911,30.501423 30.2372957,30.5678947 30.2649222,30.6353411 C30.3011089,30.7234503 30.3371012,30.8115595 30.3752335,30.8973294 C30.4053891,30.9655556 30.4369066,31.0316374 30.4682296,31.098499 C30.5061673,31.1793957 30.5444942,31.2602924 30.5839883,31.3390448 C30.6170623,31.4047368 30.6509144,31.4688694 30.6847665,31.5331969 C30.7250389,31.6090253 30.7655058,31.684269 30.806751,31.7581481 C30.841965,31.8207212 30.8777626,31.8821248 30.9137549,31.9431384 C30.9559728,32.0146784 30.9985798,32.0852437 31.0417704,32.1548343 C31.0787354,32.2137037 31.1157004,32.2719883 31.153249,32.3294932 C31.1974125,32.3973294 31.2423541,32.4639961 31.2874903,32.5296881 C31.3252335,32.5848538 31.3631712,32.6396296 31.4014981,32.6932359 C31.4478016,32.7579532 31.4948833,32.8211111 31.541965,32.8836842 C31.5799027,32.9345614 31.6178405,32.9854386 31.6565564,33.0347563 C31.7055837,33.0973294 31.7546109,33.1577583 31.8040272,33.2179922 C31.8417704,33.2639961 31.87893,33.3101949 31.9166732,33.3548343 C31.9690078,33.4166277 32.0219261,33.475692 32.0744553,33.5351462 C32.1096693,33.5747173 32.1444942,33.6152632 32.1799027,33.6538596 C32.2390467,33.7183821 32.2981907,33.7797856 32.3573346,33.8411891 C32.3865175,33.8715984 32.4155058,33.9031774 32.4444942,33.9326121 C32.532821,34.0220858 32.6211479,34.1086355 32.7088911,34.1914815 C33.556751,34.992846 34.6742607,35.4337817 35.8553891,35.4337817 L35.8565564,35.4337817 C37.0526654,35.4337817 38.1800973,34.9836842 39.0304864,34.1665302 C39.9030545,33.3289084 40.3812646,32.2096101 40.3765953,31.0154581 C40.3717315,29.8207212 39.8847665,28.7047368 39.0044163,27.8725731 C38.8209533,27.6992788 38.6931323,27.4739376 38.6088911,27.2152632 C38.3561673,26.4392398 38.4946887,25.3638012 38.691965,24.4951852 C39.0583074,22.8788109 39.7693969,21.4678947 39.9413813,21.1402144 C39.9658949,21.0934308 39.9795136,21.0686745 39.9795136,21.0686745 C40.0143385,21.0076608 40.0474125,20.9458674 40.07893,20.8834893 L56.4610311,20.8834893 C59.7011089,23.4731579 77.4256226,38.267115 77.4256226,51.8731579 C77.4256226,55.8314425 75.8509144,58.6965497 73.2176459,60.7651657 L68.5168677,63.3140936 C62.6824319,65.5074659 54.7022763,65.9634113 46.812393,65.9634113 C31.6742607,65.9634113 16.1991634,64.2893372 16.1991634,51.8731579 L16.1991634,51.8731579 Z M19.3046109,24.2561988 C19.0575292,24.2197466 18.9273735,24.0864133 18.8717315,24.0103899 C18.8005253,23.9131189 18.7734825,23.8084405 18.7913813,23.6990838 C18.8369066,23.4177973 19.1800973,23.2152632 19.5252335,23.2659454 C23.3250389,23.8259844 27.1639494,22.7768616 30.1322374,21.5322222 C30.0190078,21.9938207 29.9225097,22.4170175 29.8450778,22.7735478 C29.5886576,22.8717934 29.33107,22.9667251 29.0740661,23.0571735 C24.7546109,24.5731579 21.4234825,24.5676998 19.3046109,24.2561988 L19.3046109,24.2561988 Z M46.812393,4.09362573 L60.6941051,4.09362573 L56.4874903,11.2367057 L47.0300973,11.2367057 L46.5948833,11.2367057 L37.1371012,11.2367057 L32.9306809,4.09362573 L46.812393,4.09362573 Z M38.5987743,16.9848538 L36.0262062,16.9848538 C35.6444942,16.9848538 35.2985798,16.8115595 35.1014981,16.5216959 C35.091965,16.5078558 35.08107,16.4953801 35.0713424,16.4817349 C35.045856,16.4466472 35.0205642,16.4113645 34.9927432,16.3778363 C34.9896304,16.3739376 34.9869066,16.3698441 34.9837938,16.3659454 C34.9664786,16.2994737 34.9544163,16.2310526 34.9544163,16.1589279 L34.9544163,15.9610721 C34.9544163,15.5057115 35.3240661,15.1353411 35.7785409,15.1353411 L36.0262062,15.1353411 L46.5948833,15.1353411 L47.0300973,15.1353411 L57.4110311,15.1353411 C57.8653113,15.1353411 58.2351556,15.5057115 58.2351556,15.9610721 L58.2351556,16.1589279 C58.2351556,16.6142885 57.8653113,16.9848538 57.4110311,16.9848538 L57.1330156,16.9848538 L38.5987743,16.9848538 Z M35.3781518,31.3552242 C33.6666732,29.7380702 33.0219261,27.4347563 33.460642,24.5098051 C33.6079183,23.7388499 33.9598638,22.12423 34.3966342,20.6760819 C34.8332101,20.8103899 35.2964397,20.8830994 35.7760117,20.8834893 C35.7618093,20.9181871 35.747607,20.9552242 35.7332101,20.9908967 C35.7055837,21.0593177 35.6781518,21.1279337 35.6505253,21.1990838 C35.6337938,21.2423587 35.6170623,21.2869981 35.6003307,21.3312476 C35.5746498,21.3981092 35.549358,21.4653606 35.5240661,21.5345614 C35.5061673,21.5829045 35.4886576,21.6324172 35.4707588,21.6819298 C35.4464397,21.7501559 35.4223152,21.8187719 35.3981907,21.8887524 C35.3800973,21.9407992 35.362393,21.9934308 35.3446887,22.0464522 C35.3209533,22.1172125 35.297607,22.1889474 35.2742607,22.2612671 C35.2569455,22.3152632 35.2400195,22.3690643 35.2228988,22.4240351 C35.199358,22.5004483 35.1760117,22.5780312 35.1530545,22.6561988 C35.1376848,22.7086355 35.1221206,22.7604873 35.1071401,22.8137037 C35.08107,22.9051267 35.0561673,22.9981092 35.0312646,23.0914815 C35.0205642,23.1324172 35.0092802,23.1725731 34.9985798,23.2138986 C34.9633658,23.3513255 34.9293191,23.4903119 34.8974125,23.6312476 L34.897607,23.6312476 C34.188463,26.7571735 34.6723152,29.13846 36.334572,30.7090253 C36.4586965,30.8263743 36.4853502,30.9487914 36.4855447,31.0306628 C36.4859339,31.1123392 36.460642,31.2343665 36.3378794,31.3523002 C36.1723152,31.5113645 35.9653113,31.5351462 35.8561673,31.5351462 C35.7489689,31.5351462 35.5442996,31.5117544 35.3781518,31.3552242 L35.3781518,31.3552242 Z M69.4880739,70.7078558 C68.9660895,69.7597076 68.1913813,68.9710136 67.2555837,68.4310526 L70.2423541,66.8115595 C72.1326265,66.058538 73.7911868,65.1600975 75.2046109,64.1218908 C75.9427432,63.7326121 76.8544163,63.9850487 77.2878794,64.701423 C77.5157004,65.0782261 77.5764008,65.5193567 77.4586965,65.9439181 C77.3411868,66.3684795 77.0620039,66.7150682 76.6728988,66.9203314 L71.4404086,69.678616 L71.4394358,69.6792008 L69.4880739,70.7078558 Z M85.936323,66.4425536 C86.6491634,66.0669201 87.5390467,66.2780312 88.0075292,66.9341715 C88.2799027,67.3154581 88.3730934,67.7774464 88.2703696,68.2349513 C88.1674514,68.6924561 87.8855447,69.0696491 87.4762062,69.2971345 L77.9178405,74.6119493 C67.5474125,80.3778363 58.7676459,82.7552242 51.0865175,81.8805653 L49.4748444,81.3850487 L65.0631712,79.4103899 C67.5787354,79.0916764 69.5637549,77.1990838 70.0834047,74.7992788 L85.936323,66.4425536 Z M98.6396304,69.0388499 C97.0915759,66.9860234 94.4851556,66.172768 92.1086965,66.8844639 C91.9639494,66.0930409 91.6489689,65.3333918 91.1719261,64.6653606 C89.5781518,62.4339766 86.5491634,61.7144834 84.1246498,62.9920663 L81.3051946,64.4784211 C81.1835992,63.8480117 80.9522763,63.2380702 80.6155058,62.6809552 C80.1065564,61.8394347 79.4065564,61.1834893 78.6046109,60.7351462 C80.4040272,58.2484016 81.3166732,55.278616 81.3166732,51.8731579 C81.3166732,38.2390448 66.8075292,24.5076608 60.8178405,19.4199415 C61.6273735,18.5714035 62.1262062,17.4228655 62.1262062,16.1589279 L62.1262062,15.9610721 C62.1262062,14.4834893 61.4452724,13.1626316 60.3818482,12.29577 L65.7765953,3.13495127 C66.1314591,2.53222222 66.1367121,1.78524366 65.7904086,1.17764133 C65.4441051,0.570038986 64.799358,0.194990253 64.1009144,0.194990253 L46.812393,0.194990253 L29.5238716,0.194990253 C28.825428,0.194990253 28.1806809,0.570038986 27.8343774,1.17764133 C27.4880739,1.78524366 27.4933268,2.53222222 27.8481907,3.13495127 L33.1094747,12.0690643 C31.8746498,12.9218908 31.0633658,14.3480117 31.0633658,15.9610721 L31.0633658,16.1589279 C31.0633658,16.3618519 31.0775681,16.5612671 31.1024708,16.7573684 C25.5948833,19.7774464 21.6186187,19.6337817 20.0907977,19.4088304 C17.6433268,19.0487914 15.3367121,20.6926511 14.9505253,23.0739376 C14.7647276,24.2187719 15.0423541,25.3692593 15.7320428,26.3131189 C16.4487743,27.2942105 17.5166732,27.9333918 18.7392412,28.1133138 C20.3711479,28.3534698 22.0592802,28.389922 23.7954669,28.2277388 C17.8466342,34.9172125 12.3081128,43.4170175 12.3081128,51.8731579 C12.3081128,56.1392398 13.7357393,59.72423 16.5514981,62.5283236 C18.4269844,64.3963548 20.9406031,65.9174074 24.0417704,67.0651657 C18.0335992,69.0653606 13.3573346,72.4534698 11.7742607,73.6889474 L1.94566148,73.6889474 C0.87114786,73.6889474 0.000136186771,74.5618519 0.000136186771,75.6382651 L0.000136186771,94.8355361 C0.000136186771,95.9119493 0.87114786,96.7848538 1.94566148,96.7848538 L12.3719261,96.7848538 L45.2051946,99.7166277 C45.9633658,99.784269 46.7193969,99.8166277 47.4752335,99.8166277 C57.0209533,99.8162378 66.3513035,94.6427485 74.6540272,90.03846 C75.655,89.4834893 76.643716,88.9351462 77.6184241,88.4039571 L96.7075292,77.9992788 C98.2528599,77.1567836 99.3524708,75.6858285 99.7238716,73.9628265 C100.095272,72.2400195 99.7001362,70.4452827 98.6396304,69.0388499 L98.6396304,69.0388499 Z"
         id="path250" />
    </g>
  </g>
  <path
     style="fill:#008000;stroke-width:0.529661"
     d="M 26.853814,97.850879 C 18.114407,97.022823 8.6655959,96.333411 5.856456,96.318851 1.7041123,96.297325 0.68880387,96.135689 0.42743051,95.45456 -0.20832823,93.797802 0.07056976,75.353157 0.74152542,74.682203 1.148072,74.275657 3.2193657,74.04661 6.4892643,74.04661 h 5.1121447 l 3.580087,-2.351409 c 1.969048,-1.293273 4.745384,-2.770445 6.169635,-3.2826 1.424251,-0.512151 2.589547,-1.074953 2.589547,-1.250673 0,-0.175715 -1.046097,-0.827717 -2.324659,-1.448893 -9.911843,-4.815546 -11.7123781,-16.026009 -4.495882,-27.992191 0.983819,-1.63134 2.920912,-4.37555 4.304651,-6.098244 1.38374,-1.722695 2.51589,-3.250146 2.51589,-3.394335 0,-0.14419 -1.29762,-0.262163 -2.8836,-0.262163 -3.629098,0 -5.76753,-1.550893 -5.76753,-4.182888 0,-2.959895 1.598291,-3.959303 6.935744,-4.336905 5.722155,-0.404817 8.833098,-1.777456 9.298127,-4.102602 0.170585,-0.852922 0.680707,-1.921319 1.133604,-2.374217 C 33.40185,12.224664 33.196668,11.661284 30.5081,7.0690561 28.056023,2.8807683 27.650644,1.8536048 28.192233,1.2010302 28.755242,0.52264592 31.414064,0.42982489 46.861541,0.54927383 c 15.73901,0.12170324 18.079386,0.24488549 18.540292,0.97584107 0.401996,0.6375247 -0.173215,2.0236948 -2.417696,5.8262712 -2.512733,4.2570479 -2.840562,5.1063749 -2.232627,5.7842069 1.124729,1.25404 1.39759,3.325036 0.628061,4.766949 -0.682346,1.27855 -0.50455,1.533927 5.162616,7.415255 12.749556,13.231368 17.047553,24.106165 13.075922,33.084703 -1.021239,2.308681 -1.030911,2.496589 -0.174788,3.396615 0.498437,0.524005 1.144603,1.35705 1.435916,1.851213 0.491806,0.834254 0.722018,0.816658 3.220895,-0.246207 2.598528,-1.105249 2.757405,-1.113284 4.612151,-0.233146 1.063114,0.504481 2.214227,1.574163 2.577738,2.395392 0.536626,1.212325 0.976515,1.474798 2.403851,1.434337 4.861213,-0.137791 7.741858,6.331272 4.258824,9.564058 -1.651308,1.532664 -29.829873,16.860159 -35.528835,19.325609 -9.469073,4.096456 -11.718403,4.220439 -35.570047,1.960508 z m 30.833935,-3.769073 c 3.418692,-1.133612 9.911848,-4.33724 20.455927,-10.092632 8.49608,-4.637516 15.983707,-8.777257 16.639163,-9.199418 1.925371,-1.240079 1.302871,-4.450773 -0.862929,-4.450773 -0.430911,0 -4.852256,2.220948 -9.825212,4.935434 -12.370763,6.752596 -16.946441,8.64678 -23.837103,9.867818 -5.291721,0.937707 -8.74935,0.676679 -14.654116,-1.106282 -6.096626,-1.840889 -6.832293,-2.240889 -6.832293,-3.714888 0,-0.556102 0.297935,-1.113274 0.662077,-1.238162 0.364142,-0.124895 6.369135,-0.950265 13.344433,-1.834164 6.975291,-0.883903 12.893024,-1.817764 13.150514,-2.075254 0.257489,-0.257489 0.389947,-1.152659 0.294343,-1.989258 L 66.048729,71.663136 54.925847,71.356711 C 47.020858,71.138935 42.883568,70.796557 40.625,70.173247 36.66254,69.079709 30.927881,69.035249 26.965392,70.067346 c -3.361764,0.875625 -9.201378,3.693464 -11.999439,5.790191 -1.638754,1.227998 -2.298671,1.367039 -6.4883471,1.367039 H 3.8135593 v 7.944916 7.944915 l 5.1641949,0.03628 c 2.8403068,0.01991 12.1954448,0.720953 20.7891948,1.557807 8.711677,0.848331 17.237144,1.413713 19.268652,1.277833 2.046568,-0.136885 5.838975,-0.971663 8.652148,-1.904496 z m 5.977505,-13.210265 c 4.073141,-0.998967 20.55446,-8.873337 23.505445,-11.230323 1.175016,-0.938506 1.440043,-1.483792 1.156044,-2.378586 -0.206738,-0.651371 -0.804651,-1.160937 -1.36222,-1.160937 -0.546567,0 -4.495995,1.847193 -8.776509,4.104873 -6.256796,3.300037 -8.023327,4.484682 -9.009751,6.041986 -1.534852,2.423136 -2.706261,2.800069 -12.282749,3.952283 -4.160329,0.500561 -7.378017,1.089899 -7.150423,1.30964 1.194411,1.153215 7.86047,0.84724 13.920163,-0.638936 z m 9.445191,-11.812039 c 1.975863,-0.995026 3.880805,-2.156557 4.233204,-2.58117 0.849344,-1.023401 0.237993,-2.495281 -1.036419,-2.495281 -0.800895,0 -8.05223,3.274592 -8.853983,3.998321 -0.175609,0.158517 1.614216,2.835784 1.919084,2.87063 0.0801,0.0092 1.762256,-0.797473 3.738114,-1.7925 z M 64.724576,64.6192 C 71.752431,62.723385 76.467775,59.181679 77.206488,55.243999 78.811393,46.68912 73.810413,36.923193 62.038819,25.624531 L 56.75276,20.550847 h -8.474235 -8.474236 l -0.563041,1.456568 c -1.115345,2.885363 -1.132792,4.654926 -0.06553,6.646209 1.799803,3.358041 0.214548,6.409935 -3.329532,6.409935 -2.350428,0 -4.191305,-1.727563 -5.457318,-5.121397 l -0.974991,-2.613684 -2.505444,2.834702 c -4.208305,4.761347 -8.671677,11.845448 -9.833729,15.607734 -3.431471,11.109812 1.410042,17.284483 15.335204,19.557905 7.017748,1.145715 27.069152,0.705397 32.314666,-0.709619 z M 36.652542,31.261921 c 0,-0.226495 -0.384752,-0.961119 -0.855004,-1.632498 -0.873075,-1.24649 -0.847352,-6.061787 0.04355,-8.151669 0.302092,-0.708652 0.141197,-0.926907 -0.683306,-0.926907 -0.882701,0 -1.189836,0.536599 -1.692197,2.95646 -0.647836,3.120609 -0.416672,5.013937 0.851566,6.974685 0.730012,1.128627 2.335394,1.664762 2.335394,0.779929 z M 26.239157,24.043882 c 3.006746,-0.707419 4.565921,-1.572137 3.94832,-2.189738 -0.166838,-0.166838 -1.734611,0.06754 -3.483939,0.520833 -1.749329,0.453296 -4.278344,0.824176 -5.620034,0.824176 -1.34169,0 -2.439436,0.218485 -2.439436,0.485522 0,1.226067 3.256136,1.380064 7.595089,0.359207 z m 31.864657,-7.995153 c 0,-1.021909 -0.400848,-1.06438 -11.349773,-1.202546 -11.592511,-0.146287 -13.054953,0.08812 -11.586765,1.857178 0.444678,0.535804 3.073636,0.658238 11.75466,0.547425 10.781194,-0.13762 11.181878,-0.180694 11.181878,-1.202057 z M 58.80322,7.8779619 C 59.966541,5.8602055 60.781637,4.0725994 60.614544,3.9055042 60.105826,3.3967843 32.944915,3.5638912 32.944915,4.075741 c 0,0.2607254 0.893803,2.046125 1.986229,3.9675546 l 1.986229,3.4935084 9.885357,0.0049 9.885358,0.0049 2.115132,-3.6686486 z"
     id="path3971"
     inkscape:connector-curvature="0" />
  <path
     style="fill:#008000;stroke-width:0.529661"
     d="m 45.917067,54.00326 c -2.049617,-0.942951 -5.556898,-4.350452 -5.556898,-5.398809 0,-0.281177 -0.457201,-0.511231 -1.016002,-0.511231 -1.816286,0 -2.691625,-0.618022 -2.691625,-1.90039 0,-0.899488 0.376908,-1.351992 1.324153,-1.589735 1.733671,-0.435124 1.713502,-1.988709 -0.03617,-2.785912 -1.957776,-0.892022 -1.594467,-2.89922 0.589683,-3.257861 1.011689,-0.166121 2.353235,-1.088359 3.599268,-2.474297 2.219885,-2.469134 5.550177,-3.881635 9.151836,-3.881635 2.47071,0 3.094843,0.512935 2.583706,2.123384 -0.253352,0.798241 -0.808836,1.057409 -2.285248,1.066214 -2.030557,0.01211 -6.05649,1.567161 -6.683399,2.581521 -0.245189,0.396723 0.486445,0.584813 2.27481,0.584813 3.306329,0 4.311867,0.379424 4.311867,1.627015 0,1.437246 -1.627049,2.080612 -5.26179,2.080612 -2.859679,0 -3.212786,0.116427 -3.212786,1.059322 0,0.956638 0.353107,1.059322 3.642772,1.059322 2.677545,0 3.82725,0.222281 4.33899,0.83889 1.289345,1.553566 -0.05558,2.575995 -3.773597,2.868737 l -3.363518,0.264831 1.698838,1.424491 c 1.085319,0.91005 2.606519,1.541357 4.212211,1.748091 3.151002,0.405696 4.102354,0.911653 4.102354,2.181754 0,1.454291 -5.021268,1.638021 -7.949458,0.290873 z"
     id="path3973"
     inkscape:connector-curvature="0" />
</svg>
