<?xml version="1.0" encoding="UTF-8" standalone="no"?>
<svg
   xmlns:dc="http://purl.org/dc/elements/1.1/"
   xmlns:cc="http://creativecommons.org/ns#"
   xmlns:rdf="http://www.w3.org/1999/02/22-rdf-syntax-ns#"
   xmlns:svg="http://www.w3.org/2000/svg"
   xmlns="http://www.w3.org/2000/svg"
   xmlns:sodipodi="http://sodipodi.sourceforge.net/DTD/sodipodi-0.dtd"
   xmlns:inkscape="http://www.inkscape.org/namespaces/inkscape"
   version="1.1"
   x="0px"
   y="0px"
   viewBox="0 0 100 125"
   enable-background="new 0 0 100 100"
   xml:space="preserve"
   id="svg91"
   sodipodi:docname="Euro.svg"
   inkscape:version="0.92.3 (unknown)"><metadata
     id="metadata97"><rdf:RDF><cc:Work
         rdf:about=""><dc:format>image/svg+xml</dc:format><dc:type
           rdf:resource="http://purl.org/dc/dcmitype/StillImage" /></cc:Work></rdf:RDF></metadata><defs
     id="defs95" /><sodipodi:namedview
     pagecolor="#ffffff"
     bordercolor="#666666"
     borderopacity="1"
     objecttolerance="10"
     gridtolerance="10"
     guidetolerance="10"
     inkscape:pageopacity="0"
     inkscape:pageshadow="2"
     inkscape:window-width="1920"
     inkscape:window-height="500"
     id="namedview93"
     showgrid="false"
     inkscape:zoom="6.312"
     inkscape:cx="50"
     inkscape:cy="62.5"
     inkscape:window-x="0"
     inkscape:window-y="27"
     inkscape:window-maximized="1"
     inkscape:current-layer="svg91" /><g
     id="g85"
     transform="translate(0,2.8125e-6)"
     clip-path="none"><path
       d="m 48.541,78.487 c -1.309,0 -2.375,1.065 -2.375,2.375 0,1.31 1.066,2.375 2.375,2.375 1.311,0 2.375,-1.065 2.375,-2.375 0,-1.31 -1.064,-2.375 -2.375,-2.375 z m 0,3.75 c -0.758,0 -1.375,-0.617 -1.375,-1.375 0,-0.758 0.617,-1.375 1.375,-1.375 0.759,0 1.375,0.617 1.375,1.375 0,0.758 -0.616,1.375 -1.375,1.375 z"
       id="path77"
       inkscape:connector-curvature="0" /><path
       d="m 49.938,41.026 c 4.017,0 7.285,-3.269 7.285,-7.286 0,-4.018 -3.269,-7.287 -7.285,-7.287 -4.019,0 -7.287,3.269 -7.287,7.287 0,4.017 3.269,7.286 7.287,7.286 z m 0,-13.572 c 3.466,0 6.285,2.82 6.285,6.287 0,3.466 -2.819,6.286 -6.285,6.286 -3.467,0 -6.287,-2.82 -6.287,-6.286 0,-3.467 2.821,-6.287 6.287,-6.287 z"
       id="path79"
       inkscape:connector-curvature="0" /><path
       d="M 72.272,19.308 55.097,13.726 c -0.125,-0.04 -0.264,-0.03 -0.381,0.03 -0.119,0.06 -0.208,0.165 -0.249,0.291 l -0.401,1.235 h -8.133 l -0.4,-1.235 c -0.041,-0.126 -0.131,-0.231 -0.249,-0.291 -0.118,-0.06 -0.257,-0.07 -0.382,-0.03 l -17.174,5.582 c -0.264,0.085 -0.407,0.368 -0.322,0.63 l 11.1,34.157 c 0.069,0.211 0.266,0.346 0.477,0.346 0.051,0 0.103,-0.008 0.154,-0.024 l 0.18,-0.059 c -0.223,0.701 -0.133,1.432 0.297,2.205 0.379,0.481 0.807,1.147 1.232,1.841 -0.479,0.395 -0.91,0.881 -1.094,1.139 -0.687,0.962 -0.748,1.971 -0.139,3.066 1.133,1.44 1.861,2.125 2.4,2.618 -0.13,0.713 -0.213,1.454 -0.213,2.226 0,1.05 1.074,2.952 3.132,6.503 l 0.657,1.137 c -0.484,0.211 -0.827,0.724 -0.827,1.323 v 8.457 c 0,0.786 0.59,1.426 1.314,1.426 H 59.82 c 0.725,0 1.314,-0.64 1.314,-1.426 v -8.457 c 0,-0.696 -0.462,-1.275 -1.068,-1.401 0.153,-0.547 0.419,-1.411 0.716,-2.372 1.27,-4.118 3.188,-10.34 3.028,-12.763 -0.003,-0.04 -0.011,-0.08 -0.022,-0.118 -0.686,-2.164 -2.645,-3.895 -5.129,-6.063 l 2.204,0.716 c 0.052,0.017 0.103,0.024 0.154,0.024 0.211,0 0.407,-0.134 0.476,-0.346 l 11.1,-34.157 C 72.68,19.675 72.535,19.393 72.272,19.308 Z M 59.467,37.264 c 1.378,-0.31 2.512,-1.176 2.954,-2.456 0.274,-0.796 0.257,-1.658 -0.052,-2.493 l -0.938,0.348 c 0.227,0.615 0.242,1.244 0.044,1.819 -0.304,0.876 -1.062,1.483 -2.009,1.753 v -2.331 l 0.105,-0.307 -0.105,-0.037 v -5.578 c 0.153,0.033 0.308,0.062 0.458,0.11 1.597,0.519 2.896,1.628 3.657,3.125 0.762,1.496 0.896,3.199 0.377,4.797 -0.686,2.112 -2.408,3.637 -4.492,4.143 V 37.264 Z M 58.426,16.471 c 0.016,0.013 0.025,0.03 0.041,0.043 v 2.521 c -0.055,0.084 -0.107,0.168 -0.17,0.247 -0.646,0.815 -1.918,0.966 -2.736,0.318 -0.842,-0.667 -0.983,-1.894 -0.316,-2.735 0.195,-0.247 0.488,-0.445 0.832,-0.583 h 1.978 c 0.129,0.057 0.267,0.107 0.371,0.189 z m -3.29,-1.244 c 0.157,-0.134 0.34,-0.214 0.537,-0.263 l 0.978,0.318 H 55.118 Z M 44.328,14.964 c 0.197,0.048 0.38,0.128 0.537,0.263 l 0.018,0.055 H 43.35 Z m -2.92,1.732 c 0.115,-0.188 0.261,-0.316 0.418,-0.414 h 2.001 c 0.116,0.048 0.239,0.082 0.348,0.143 0.453,0.256 0.78,0.673 0.919,1.174 0.139,0.501 0.075,1.026 -0.181,1.479 -0.345,0.61 -0.995,0.989 -1.696,0.989 -0.334,0 -0.664,-0.087 -0.957,-0.252 -0.368,-0.208 -0.66,-0.58 -0.852,-1.01 z m 0,3.025 c 0.178,0.211 0.375,0.4 0.605,0.53 0.367,0.208 0.783,0.317 1.203,0.317 0.881,0 1.698,-0.476 2.132,-1.243 0.321,-0.569 0.401,-1.229 0.228,-1.859 -0.13,-0.466 -0.39,-0.872 -0.745,-1.183 h 10.307 c -0.101,0.087 -0.206,0.171 -0.286,0.272 -0.838,1.058 -0.658,2.6 0.398,3.438 0.438,0.346 0.963,0.529 1.52,0.529 0.646,0 1.242,-0.261 1.697,-0.705 v 27.941 c -0.455,-0.443 -1.052,-0.705 -1.697,-0.705 -0.557,0 -1.082,0.183 -1.52,0.529 -1.057,0.837 -1.236,2.379 -0.398,3.438 0.053,0.065 0.125,0.117 0.187,0.177 h -1.39 c 0.021,-2.428 0.037,-4.839 -0.06,-6.039 -0.04,-0.502 -0.217,-0.949 -0.483,-1.337 -0.551,-1.15 -1.836,-1.823 -3.379,-1.687 -1.204,0.104 -2.174,0.697 -2.732,1.669 -0.016,0.027 -0.018,0.06 -0.027,0.089 -0.439,0.607 -0.702,1.373 -0.727,2.275 0,0.546 -0.113,2.686 -0.318,5.03 h -1 c 0.306,-0.298 0.536,-0.666 0.654,-1.088 0.174,-0.63 0.094,-1.29 -0.228,-1.859 -0.434,-0.767 -1.251,-1.243 -2.132,-1.243 -0.42,0 -0.836,0.109 -1.203,0.317 -0.23,0.13 -0.428,0.319 -0.605,0.53 V 19.721 Z m 14.48,31.476 c -0.258,-0.13 -0.487,-0.29 -0.644,-0.488 -0.667,-0.842 -0.525,-2.069 0.316,-2.735 0.348,-0.276 0.766,-0.421 1.209,-0.421 0.599,0 1.156,0.27 1.527,0.739 0.063,0.078 0.115,0.163 0.17,0.247 v 2.521 c -0.016,0.014 -0.025,0.031 -0.041,0.043 -0.052,0.041 -0.127,0.059 -0.186,0.094 z m 1.534,1.049 -0.148,-0.048 h 0.125 c 0.007,0.015 0.015,0.031 0.023,0.048 z m -6.099,-4.139 c -0.343,0.346 -0.786,0.515 -1.356,0.515 l -0.141,-0.003 c -0.576,-0.027 -0.979,-0.191 -1.269,-0.516 -0.545,-0.613 -0.76,-1.899 -0.644,-3.82 0.436,-0.486 1.069,-0.782 1.874,-0.848 1.073,-0.09 1.944,0.25 2.419,0.85 v 0.067 c 0.012,0.846 0.035,2.826 -0.883,3.755 z m -9.915,0.662 c 0.191,-0.43 0.483,-0.802 0.852,-1.01 0.293,-0.165 0.623,-0.252 0.957,-0.252 0.701,0 1.352,0.379 1.696,0.989 0.256,0.453 0.319,0.979 0.181,1.479 -0.138,0.5 -0.466,0.918 -0.919,1.174 -0.036,0.021 -0.079,0.029 -0.118,0.048 H 41.671 C 41.572,51.113 41.485,51.004 41.408,50.878 Z M 28.584,20.325 c 0.011,-0.018 0.014,-0.037 0.025,-0.054 0.07,-0.104 0.168,-0.195 0.267,-0.285 l 1.882,-0.612 c 0.385,0.021 0.734,0.111 1,0.288 0.894,0.595 1.139,1.806 0.545,2.7 -0.363,0.544 -0.971,0.87 -1.625,0.87 -0.384,0 -0.756,-0.113 -1.077,-0.326 -0.083,-0.055 -0.16,-0.12 -0.237,-0.183 z m 1.016,3.126 c 0.338,0.168 0.699,0.28 1.078,0.28 0.822,0 1.585,-0.409 2.041,-1.093 0.746,-1.124 0.439,-2.645 -0.684,-3.393 -0.109,-0.073 -0.246,-0.113 -0.371,-0.166 l 8.744,-2.842 v 10.749 c -0.215,0.046 -0.431,0.086 -0.641,0.154 -1.852,0.602 -3.357,1.888 -4.24,3.622 -0.884,1.734 -1.039,3.708 -0.438,5.56 0.809,2.486 2.853,4.277 5.318,4.834 v 7.568 c -0.005,0 -0.01,-10e-4 -0.015,-10e-4 -0.908,0 -1.737,0.512 -2.159,1.3 z m 8.126,9.703 c -0.147,0.699 -0.095,1.408 0.153,2.052 0.424,1.104 1.372,1.861 2.529,2.211 v 2.705 c -2.026,-0.537 -3.695,-2.039 -4.367,-4.108 -0.519,-1.598 -0.385,-3.301 0.377,-4.797 0.762,-1.496 2.061,-2.605 3.658,-3.125 0.109,-0.035 0.221,-0.055 0.332,-0.08 v 8.37 c -0.734,-0.296 -1.32,-0.818 -1.596,-1.536 -0.182,-0.47 -0.218,-0.971 -0.107,-1.487 z m 1.788,20.087 C 39.45,53.226 39.373,53.23 39.313,53.207 39.293,53.2 39.28,53.186 39.26,53.178 l -0.779,-2.396 c 0.026,-0.097 0.051,-0.194 0.086,-0.288 0.283,-0.76 1.018,-1.27 1.827,-1.27 0.005,0 0.01,0.001 0.015,0.001 v 2.472 c 0,0.276 0.224,0.5 0.5,0.5 h 0.459 c -0.428,0.27 -0.828,0.548 -1.141,0.813 z m 0.931,2.771 c -0.379,-0.69 -0.342,-1.287 0.121,-1.936 0.033,-0.047 0.094,-0.11 0.169,-0.181 l 3.708,-1.205 c 0.177,-0.058 0.293,-0.207 0.328,-0.376 0.344,-0.008 0.688,-0.017 1.018,-0.02 -0.094,0.974 -0.256,2.54 -0.449,3.75 -0.004,0.023 -0.008,0.046 -0.012,0.069 -0.559,-0.522 -1.178,-0.526 -1.229,-0.531 -0.275,0.002 -0.498,0.227 -0.496,0.503 0.002,0.275 0.226,0.497 0.5,0.497 10e-4,0 0.002,0 0.004,0 0.006,0 0.54,0.017 0.857,0.724 0.02,0.043 0.059,0.066 0.087,0.101 -0.104,0.333 -0.253,0.708 -0.423,1.094 -0.109,0.22 -0.213,0.432 -0.336,0.675 -0.205,0.405 -0.426,0.847 -0.647,1.308 -0.06,0.11 -0.118,0.217 -0.171,0.313 -0.3,-0.458 -0.656,-1.057 -1.026,-1.678 -0.659,-1.104 -1.407,-2.358 -2.003,-3.107 z m 2.028,7.36 c -0.019,0.061 -0.043,0.147 -0.065,0.23 -0.05,0.163 -0.097,0.326 -0.142,0.492 -0.459,-0.443 -1.044,-1.054 -1.821,-2.035 -0.379,-0.69 -0.342,-1.287 0.121,-1.936 0.13,-0.182 0.403,-0.494 0.708,-0.775 l 1.658,2.755 c -0.027,0.072 -0.062,0.161 -0.097,0.252 -0.079,0.206 -0.157,0.412 -0.23,0.625 -0.054,0.15 -0.102,0.291 -0.132,0.392 z m 17.663,13.043 v 8.457 c 0,0.231 -0.144,0.426 -0.314,0.426 H 46.077 c -0.171,0 -0.314,-0.195 -0.314,-0.426 v -8.457 c 0,-0.232 0.144,-0.428 0.314,-0.428 h 0.317 13.043 0.384 c 0.171,0 0.315,0.196 0.315,0.428 z m 2.68,-16.409 c 0.111,2.29 -1.827,8.574 -2.988,12.342 -0.396,1.286 -0.658,2.136 -0.79,2.639 H 46.684 l -0.886,-1.534 c -1.608,-2.775 -2.997,-5.172 -2.997,-6.001 0,-0.903 0.123,-1.766 0.312,-2.593 0.066,-0.264 0.163,-0.644 0.243,-0.939 0.074,-0.245 0.15,-0.487 0.232,-0.723 0.037,-0.1 0.074,-0.202 0.112,-0.303 0.256,-0.688 0.54,-1.333 0.826,-1.935 0.313,-0.58 0.701,-1.333 1.024,-2.068 0.053,-0.106 0.115,-0.228 0.164,-0.329 0.098,-0.207 0.189,-0.492 0.277,-0.81 0.014,-0.041 0.028,-0.083 0.04,-0.123 0.101,-0.335 0.194,-0.813 0.283,-1.356 0.47,-2.647 0.755,-6.537 0.868,-8.666 0.151,0.47 0.357,0.857 0.627,1.16 0.473,0.533 1.117,0.812 1.969,0.851 l 0.188,0.004 c 0.84,0 1.535,-0.273 2.068,-0.812 0.268,-0.271 0.467,-0.599 0.627,-0.948 0.006,1.209 -0.007,2.598 -0.019,3.903 -0.046,0.875 -0.107,2.597 -0.008,4.292 0.005,0.219 0.011,0.414 0.02,0.58 0.041,0.82 0.166,1.568 0.38,2.275 0.061,0.221 0.129,0.422 0.197,0.583 0.51,1.344 1.383,2.647 2.67,3.983 0.188,0.198 0.502,0.205 0.699,0.02 0.2,-0.186 0.215,-0.497 0.033,-0.7 -0.011,-0.012 -0.683,-0.768 -1.365,-1.75 0.103,0.007 0.207,0.023 0.307,0.023 0.779,0 1.431,-0.196 1.472,-0.208 0.265,-0.081 0.413,-0.361 0.331,-0.625 -0.08,-0.264 -0.359,-0.415 -0.624,-0.332 -0.335,0.103 -1.364,0.306 -2.083,0.015 -0.04,-0.016 -0.082,-0.018 -0.123,-0.023 -0.141,-0.253 -0.273,-0.508 -0.381,-0.758 -0.064,-0.169 -0.121,-0.338 -0.169,-0.495 -0.177,-0.639 -0.299,-1.523 -0.363,-2.61 -0.021,-0.921 -0.011,-2.279 0.003,-3.742 0.591,0.003 1.178,0.011 1.592,0.023 0.035,0.169 0.15,0.317 0.326,0.374 l 0.715,0.232 c 0.557,0.5 1.105,0.983 1.627,1.439 2.393,2.089 4.29,3.742 4.918,5.645 z M 60.74,53.179 c -0.019,0.008 -0.033,0.021 -0.053,0.029 -0.061,0.022 -0.137,0.019 -0.201,0.034 l -2.251,-0.731 c -0.099,-0.099 -0.184,-0.204 -0.258,-0.313 h 0.989 c 0.276,0 0.5,-0.224 0.5,-0.5 v -2.46 c 0.047,-0.003 0.094,-0.013 0.141,-0.013 0.81,0 1.544,0.51 1.826,1.27 0.035,0.094 0.061,0.191 0.086,0.288 z m 1.026,-3.155 c -0.422,-0.788 -1.25,-1.3 -2.158,-1.3 -0.048,0 -0.094,0.009 -0.141,0.013 v -7.548 c 2.522,-0.523 4.622,-2.337 5.443,-4.866 0.602,-1.851 0.447,-3.826 -0.437,-5.56 -0.884,-1.734 -2.39,-3.02 -4.24,-3.622 -0.251,-0.082 -0.509,-0.133 -0.767,-0.185 v -10.76 l 8.87,2.883 c -0.126,0.053 -0.262,0.093 -0.371,0.166 -1.123,0.748 -1.431,2.269 -0.684,3.393 0.456,0.684 1.218,1.093 2.041,1.093 0.379,0 0.74,-0.112 1.077,-0.28 z m 8.872,-27.302 c -0.077,0.063 -0.155,0.127 -0.237,0.183 -0.322,0.213 -0.693,0.326 -1.077,0.326 -0.655,0 -1.263,-0.325 -1.625,-0.87 -0.594,-0.894 -0.349,-2.105 0.544,-2.7 0.267,-0.177 0.615,-0.266 1,-0.288 l 1.883,0.612 c 0.098,0.09 0.196,0.18 0.266,0.285 0.012,0.018 0.016,0.037 0.025,0.054 z"
       id="path81"
       inkscape:connector-curvature="0" /><path
       d="m 48.522,37.4 v 0.725 h 1 v -0.561 c 0.14,0.01 0.272,0.036 0.415,0.036 0.258,0 0.506,-0.031 0.752,-0.064 v 0.589 h 1 v -0.813 c 1.803,-0.596 3.087,-2.073 3.087,-3.807 0,-0.842 -0.299,-1.651 -0.864,-2.339 L 53.141,31.8 c 0.416,0.507 0.636,1.096 0.636,1.705 0,1.195 -0.854,2.222 -2.087,2.738 v -2.952 h -1 v 3.248 c -0.243,0.039 -0.494,0.061 -0.752,0.061 -0.143,0 -0.277,-0.021 -0.415,-0.034 v -3.275 h -1 v 3.084 c -1.417,-0.456 -2.424,-1.568 -2.424,-2.871 0,-0.503 0.146,-0.983 0.433,-1.426 l -0.839,-0.544 c -0.389,0.599 -0.594,1.28 -0.594,1.97 0,1.839 1.448,3.38 3.423,3.896 z"
       id="path83"
       inkscape:connector-curvature="0" /></g><path
     style="fill:#008000;stroke-width:0.15842839"
     d="m 45.287476,85.843702 -0.38887,-0.388868 V 80.63717 75.819508 l 0.382768,-0.382767 0.382766,-0.382769 -1.190781,-2.054868 c -0.654931,-1.13018 -1.486635,-2.660858 -1.848231,-3.401512 -0.639905,-1.310709 -0.656986,-1.387653 -0.640168,-2.883711 l 0.01728,-1.537072 -0.935771,-0.997783 c -1.276059,-1.360622 -1.739262,-2.170223 -1.739262,-3.039939 0,-0.828299 0.169047,-1.182133 0.990573,-2.073384 l 0.611696,-0.663611 -0.787932,-1.247794 c -0.749383,-1.186748 -0.855607,-1.515571 -0.79551,-2.462543 0.02096,-0.330366 -0.04297,-0.407014 -0.330379,-0.396071 -0.380385,0.01448 0.06239,1.326994 -9.872225,-29.263904 -1.089817,-3.355787 -1.678532,-5.395666 -1.584284,-5.48949 0.23331,-0.232262 17.308817,-5.740624 17.613569,-5.681934 0.169603,0.03266 0.349888,0.333259 0.483413,0.806019 l 0.21294,0.753931 4.127676,-0.04222 4.127675,-0.04222 0.262759,-0.711528 c 0.144519,-0.39134 0.37161,-0.732488 0.504647,-0.75811 0.229175,-0.04414 16.7099,5.229802 17.296071,5.534853 0.152487,0.07936 0.276966,0.266539 0.276621,0.41596 -9.51e-4,0.398532 -11.027,34.255577 -11.218101,34.446678 -0.110537,0.110537 -0.544296,0.03362 -1.363328,-0.241755 -0.660667,-0.22213 -1.201212,-0.376529 -1.201212,-0.34311 0,0.03342 0.915358,0.973149 2.034128,2.08829 1.568985,1.563894 2.156376,2.268772 2.568728,3.08251 l 0.534601,1.054986 -0.18923,1.47987 c -0.240349,1.87964 -1.00882,4.918864 -2.437213,9.638932 -0.619675,2.047687 -1.160612,3.812185 -1.202084,3.921104 -0.04147,0.10892 0.03399,0.198035 0.167691,0.198035 0.133702,0 0.390853,0.187847 0.571449,0.417436 0.315003,0.400461 0.328356,0.603825 0.328356,5.00091 0,4.662744 -0.04096,5.024003 -0.619985,5.468567 -0.188944,0.145067 -2.053211,0.194248 -7.506671,0.198036 l -7.255301,0.005 z m 14.814682,-0.709713 c 0.19478,-0.363949 0.224765,-8.699831 0.03238,-9.002877 -0.09954,-0.156803 -1.655635,-0.190827 -7.245673,-0.158427 l -7.118907,0.04126 -0.04211,4.49596 c -0.02983,3.184815 0.01047,4.559327 0.13822,4.713245 0.147764,0.178045 1.434626,0.217283 7.126205,0.217283 6.70504,0 6.951564,-0.01063 7.10988,-0.306442 z m 0.208414,-14.150148 c 1.776152,-5.911506 2.14997,-7.382732 2.496362,-9.824822 0.179237,-1.263636 -0.02406,-1.833411 -1.178247,-3.30225 -0.88622,-1.127817 -5.039394,-4.857923 -5.730352,-5.146624 -0.286984,-0.11991 -0.566518,-0.290391 -0.621187,-0.378845 -0.05467,-0.08846 -0.451654,-0.16083 -0.882189,-0.16083 h -0.782792 v 2.426543 c 0,3.136305 0.331664,4.899621 1.012283,5.381893 0.09676,0.06855 0.710626,0.104209 1.364143,0.07921 1.122158,-0.04292 1.190987,-0.02594 1.238105,0.305419 0.05314,0.373707 -0.04615,0.420789 -1.357286,0.643634 l -0.673682,0.114501 0.723074,0.920478 c 0.704037,0.896246 0.834521,1.35969 0.421545,1.497198 -0.533731,0.177717 -2.502374,-2.631601 -3.150444,-4.495786 -0.430805,-1.239212 -0.434648,-1.287339 -0.496526,-6.215625 l -0.06236,-4.966743 -0.341174,0.483007 c -0.53433,0.756459 -1.344721,1.132988 -2.438494,1.132988 -1.130675,0 -1.835247,-0.398288 -2.360245,-1.334223 l -0.343251,-0.611927 -0.102706,1.250326 c -0.422422,5.142526 -0.719745,7.485056 -1.132388,8.921765 -0.135697,0.472461 -0.636167,1.635555 -1.112157,2.584651 -1.072421,2.138347 -1.727934,4.076617 -1.960117,5.795823 -0.227968,1.688004 -0.108871,2.059212 1.692057,5.273864 0.751353,1.341163 1.515376,2.705238 1.697828,3.031278 l 0.331732,0.5928 6.273273,0.0013 6.273275,0.0013 1.20192,-4.000316 z M 42.17028,60.695791 c -0.454562,-0.767823 -0.881713,-1.396044 -0.949223,-1.396044 -0.06751,0 -0.337071,0.295869 -0.599024,0.657485 -0.858238,1.184762 -0.68658,1.791217 1.014599,3.584494 l 0.642554,0.677342 0.358786,-1.063615 0.358785,-1.063617 z m 2.149924,-1.378244 c 0.405257,-0.861565 0.73683,-1.70603 0.73683,-1.876586 0,-0.369468 -0.386944,-0.748517 -1.003344,-0.982872 -0.476976,-0.181347 -0.496028,-0.434378 -0.05358,-0.711662 0.204723,-0.1283 0.392435,-0.10025 0.768802,0.114883 0.619025,0.353835 0.689923,0.256684 0.826561,-1.13263 0.05697,-0.579227 0.14654,-1.391781 0.199053,-1.805675 l 0.09548,-0.752535 h -0.579881 c -0.342374,0 -0.6137,0.08813 -0.662448,0.21516 -0.04541,0.118338 -0.976431,0.492625 -2.068935,0.831749 -1.745873,0.541936 -2.015514,0.67246 -2.227077,1.078051 -0.375324,0.719542 -0.170336,1.458182 0.817232,2.944748 0.492036,0.740653 1.19387,1.86264 1.55963,2.493305 0.36576,0.630664 0.707732,1.147537 0.759937,1.148606 0.05221,0.0011 0.426493,-0.702975 0.831749,-1.564542 z m -3.516377,-6.627483 c 0.537347,-0.355581 0.606701,-0.451289 0.360174,-0.497035 -0.609715,-0.113139 -0.70139,-0.338641 -0.70139,-1.725258 v -1.347048 l -0.507276,0.101456 c -0.582798,0.116559 -1.202651,0.637435 -1.415778,1.18971 -0.109551,0.283877 -0.04043,0.699386 0.272833,1.640019 0.410823,1.23359 0.42899,1.257929 0.872751,1.169177 0.249257,-0.04985 0.752666,-0.288811 1.118686,-0.531021 z m 20.395346,-0.714065 c 0.380638,-1.175283 0.38599,-1.246294 0.133791,-1.77516 -0.287962,-0.603864 -1.050385,-1.08768 -1.592419,-1.010515 -0.319124,0.04543 -0.351839,0.158996 -0.424956,1.475076 l -0.07921,1.425856 -0.712928,0.07921 c -0.84502,0.09389 -0.722481,0.222242 0.709454,0.743097 1.430187,0.52022 1.50582,0.484157 1.966272,-0.937568 z M 44.432096,51.056775 c 0.415936,-0.222603 0.78349,-0.979207 0.782774,-1.611327 -0.0016,-1.384847 -1.579281,-2.448809 -2.742712,-1.849603 -0.923315,0.475537 -1.058977,0.747147 -1.058977,2.120197 0,0.710941 0.04753,1.340149 0.105619,1.398238 0.169225,0.169225 2.578508,0.121668 2.913296,-0.05751 z m 1.585488,-0.114125 c 0.0055,-0.152487 0.0983,-1.524873 0.206237,-3.049747 0.220834,-3.119677 0.452759,-3.843162 1.549677,-4.83416 1.47977,-1.336884 4.041557,-1.053303 5.113167,0.56601 0.583449,0.88165 0.725502,1.845668 0.725502,4.923489 V 51.2199 h 0.713235 0.713237 l -0.317166,-0.59176 c -0.640812,-1.195617 -0.182929,-2.623605 1.029449,-3.210508 0.824434,-0.399101 1.276805,-0.399104 2.059598,-1.4e-5 0.341823,0.174271 0.642067,0.316858 0.667211,0.316858 0.02514,0 0.04572,-6.279705 0.04572,-13.9549 0,-7.675196 -0.05347,-13.927378 -0.118821,-13.893738 -1.724022,0.887448 -2.705905,0.704105 -3.657972,-0.683039 -0.461874,-0.672942 -0.410472,-1.757135 0.118528,-2.500046 l 0.352846,-0.495527 H 49.983881 44.74973 l 0.391297,0.576608 c 1.407763,2.074455 -1.096167,4.704269 -3.151234,3.309662 L 41.413185,19.7022 v 14.090577 14.090579 l 0.576608,-0.391298 c 2.007741,-1.362491 4.498478,1.113901 3.212752,3.19425 L 44.872767,51.2199 h 0.567421 c 0.430979,0 0.569821,-0.06667 0.5774,-0.27725 z m 12.505863,-1.120989 c 0,-1.261095 -0.03636,-1.432397 -0.370701,-1.746497 -1.867589,-1.754507 -4.615416,1.010331 -2.804192,2.821554 0.277412,0.277413 0.525117,0.323182 1.749038,0.323182 h 1.425855 z M 39.462018,49.020913 c 0.190327,-0.0976 0.493321,-0.177439 0.673321,-0.177439 0.321789,0 0.327272,-0.06467 0.327272,-3.860267 v -3.860269 l -0.938944,-0.342355 c -3.30813,-1.206205 -5.320149,-4.810206 -4.543135,-8.137827 0.526039,-2.2528 1.847558,-3.98143 3.784599,-4.950493 0.608486,-0.304413 1.239345,-0.553478 1.401909,-0.553478 0.282764,0 0.295571,-0.236827 0.295571,-5.465779 0,-3.006179 -0.04272,-5.46578 -0.09492,-5.46578 -0.132167,0 -8.508987,2.7137 -8.671411,2.809133 -0.07259,0.04265 0.0757,0.203849 0.329537,0.358216 0.966556,0.587798 1.290721,2.208052 0.634197,3.169867 -0.636747,0.93284 -1.758894,1.320804 -2.74066,0.947536 -0.327023,-0.124334 -0.409059,-0.115241 -0.357347,0.03961 0.03692,0.110545 1.987783,6.131741 4.335257,13.380437 l 4.268136,13.179446 0.475285,-0.446559 c 0.261407,-0.245607 0.631007,-0.526405 0.821334,-0.623996 z M 66.131082,36.83732 c 2.350973,-7.238999 4.274495,-13.2406 4.274495,-13.336891 0,-0.123996 -0.0894,-0.127226 -0.306442,-0.01108 -0.765551,0.409711 -1.875933,0.07414 -2.599308,-0.785541 -0.8216,-0.976416 -0.690275,-2.286172 0.317991,-3.171443 0.308806,-0.271133 0.536154,-0.509895 0.505219,-0.53058 -0.15827,-0.105829 -8.640301,-2.79868 -8.809412,-2.796786 -0.154488,0.0017 -0.198036,1.182686 -0.198036,5.370549 v 5.368328 l 0.831749,0.268431 c 4.914687,1.586115 6.64537,7.718488 3.262825,11.561259 -0.830146,0.943097 -1.786033,1.594099 -3.024027,2.0595 l -0.991332,0.372673 v 3.774245 3.774246 l 0.679298,0.134336 c 0.442547,0.08752 0.856665,0.31593 1.188213,0.655369 0.279903,0.286569 0.528121,0.506219 0.551593,0.488113 0.02348,-0.0181 1.966203,-5.955737 4.317174,-13.194738 z M 51.030014,48.374602 c 0.700219,-0.426947 0.980895,-1.053825 1.187118,-2.65138 l 0.176729,-1.369064 -0.423158,-0.363984 c -1.272067,-1.094185 -3.896978,-0.702431 -4.144805,0.618593 -0.148376,0.790912 0.173899,2.801068 0.524905,3.274051 0.619723,0.835077 1.769932,1.046204 2.679211,0.491784 z m 10.737773,-9.209801 c 1.313056,-0.942965 2.268482,-2.611348 2.537663,-4.431315 0.249357,-1.685933 -0.624393,-4.014409 -1.983398,-5.285599 -0.851352,-0.796338 -2.391526,-1.604449 -2.776417,-1.456753 -0.1965,0.0754 -0.230332,0.709675 -0.2182,4.090769 0.0079,2.20084 0.04568,4.052217 0.08397,4.114167 0.143126,0.231584 1.019242,-0.232815 1.552256,-0.822799 0.580062,-0.642059 0.826857,-1.44443 0.676111,-2.198158 -0.07331,-0.36655 -0.01944,-0.480001 0.296231,-0.623829 0.346,-0.157648 0.396177,-0.134592 0.486004,0.223308 0.05509,0.219509 0.06828,0.783631 0.02931,1.25361 -0.115413,1.391724 -1.10108,2.552505 -2.581229,3.039812 -0.471984,0.155391 -0.475609,0.165653 -0.521726,1.477124 -0.06344,1.804148 -0.05875,1.811265 0.935956,1.419188 0.451264,-0.177872 1.118824,-0.537657 1.483468,-0.799525 z M 40.462611,38.735883 v -1.394028 l -0.532602,-0.192591 c -0.689734,-0.249412 -1.62529,-1.163242 -1.924823,-1.880124 -0.129722,-0.31047 -0.235858,-0.876598 -0.235858,-1.258067 0,-0.624282 0.03756,-0.693581 0.375915,-0.693581 0.336065,0 0.384103,0.08522 0.453163,0.803944 0.08624,0.897502 0.440052,1.471296 1.245059,2.019156 l 0.539932,0.367461 0.04224,-4.233121 c 0.02323,-2.328216 0.0089,-4.266435 -0.03179,-4.307153 -0.04072,-0.04072 -0.537438,0.142822 -1.103822,0.407865 -1.316487,0.616059 -2.361288,1.664614 -2.998134,3.00891 -0.465601,0.982818 -0.502915,1.185005 -0.502915,2.72508 0,1.473236 0.04856,1.767111 0.424597,2.569403 0.571039,1.218345 1.701078,2.389857 2.867479,2.972716 0.526287,0.262987 1.052438,0.47816 1.169224,0.47816 0.16141,0 0.212338,-0.334346 0.212338,-1.39403 z M 31.903654,22.887945 c 0.938083,-0.700379 1.005432,-2.249218 0.133233,-3.063973 -0.654187,-0.611103 -1.271179,-0.598863 -3.020727,0.05992 -0.530093,0.199604 -0.537453,0.392576 -0.06857,1.797857 0.309194,0.926687 0.452899,1.145184 0.910963,1.385082 0.641368,0.335899 1.450385,0.265132 2.045104,-0.17889 z m 38.244416,0.229426 c 0.471558,-0.197029 0.566315,-0.352836 0.939432,-1.544677 0.474293,-1.515023 0.465572,-1.537579 -0.749755,-1.93901 -1.117154,-0.369004 -1.723606,-0.329745 -2.291806,0.148364 -1.14227,0.961158 -0.859154,2.715668 0.537709,3.332258 0.613779,0.270928 0.92189,0.271532 1.56442,0.0031 z M 44.028869,19.939827 c 1.386619,-0.579367 1.582793,-2.649855 0.32891,-3.47143 -0.480436,-0.314795 -2.459688,-0.365851 -2.754484,-0.07106 -0.114414,0.114414 -0.190114,0.668127 -0.190114,1.390604 0,1.356557 0.210055,1.803967 1.010504,2.152342 0.639408,0.278285 0.938257,0.2782 1.605184,-4.59e-4 z m 14.007137,-0.340474 c 0.476336,-0.400808 0.487441,-0.441934 0.487441,-1.804976 0,-1.614433 0.02636,-1.587151 -1.533178,-1.587151 -1.256913,0 -1.855561,0.35346 -2.12569,1.255071 -0.235466,0.785917 0.01805,1.596148 0.67146,2.145956 0.675453,0.568356 1.818776,0.564286 2.499967,-0.0089 z M 44.855757,15.217049 c -0.08566,-0.244942 -1.176408,-0.230363 -1.42583,0.01906 -0.133016,0.133017 0.03597,0.178978 0.658053,0.178978 0.600941,0 0.817497,-0.05586 0.767777,-0.198036 z m 11.76655,0.05219 c 0,-0.201545 -0.873483,-0.375265 -1.263868,-0.251361 -0.583898,0.185322 -0.332265,0.397201 0.471726,0.397201 0.435678,0 0.792142,-0.06563 0.792142,-0.14584 z"
     id="path99"
     inkscape:connector-curvature="0"
     clip-path="none" /><path
     style="fill:#008000;stroke-width:0.15842839"
     d="m 48.541865,37.71388 c -4.53e-4,-0.271652 -0.16539,-0.424225 -0.693224,-0.641258 -2.075665,-0.853463 -3.152105,-2.998625 -2.40362,-4.790003 0.255532,-0.611574 0.284711,-0.626689 0.704122,-0.364763 0.273901,0.171053 0.278374,0.22604 0.06076,0.746869 -0.506431,1.212061 0.133334,2.644143 1.517888,3.397711 l 0.814671,0.4434 v -1.594172 -1.594172 h 0.475285 0.475285 v 1.663499 1.663498 h 0.633714 0.633713 v -1.663498 -1.663499 h 0.396071 c 0.394681,0 0.396071,0.0053 0.396071,1.50507 0,0.827789 0.03919,1.50507 0.08708,1.50507 0.444927,0 1.59602,-0.9976 1.95313,-1.692691 0.254545,-0.495454 0.217557,-1.791937 -0.06667,-2.336993 -0.223887,-0.429337 -0.219645,-0.487905 0.05525,-0.762796 0.291384,-0.291384 0.302854,-0.289909 0.536317,0.06897 1.256129,1.930935 0.31736,4.473958 -2.010665,5.446669 -0.422873,0.176689 -0.554437,0.325139 -0.554437,0.625604 0,0.314588 -0.07978,0.393945 -0.396071,0.393945 -0.286859,0 -0.396071,-0.08505 -0.396071,-0.308462 0,-0.258466 -0.102714,-0.304368 -0.633713,-0.283192 -0.493559,0.01968 -0.633714,0.0879 -0.633714,0.308462 0,0.209038 -0.124452,0.283192 -0.475285,0.283192 -0.387093,0 -0.475395,-0.06614 -0.475879,-0.356464 z"
     id="path103"
     inkscape:connector-curvature="0"
     clip-path="none" /><path
     style="fill:#008000;stroke-width:0.15842839"
     d="m 47.876695,40.61616 c -2.690883,-0.86038 -4.593666,-3.05284 -5.050562,-5.81945 -0.369469,-2.237218 0.490443,-4.6745 2.21137,-6.267776 2.286212,-2.116629 5.281461,-2.579883 8.020165,-1.240422 4.538788,2.219856 5.454655,8.293939 1.76359,11.696243 -1.894076,1.745898 -4.599071,2.381351 -6.944563,1.631405 z m 4.309813,-0.951285 c 1.729626,-0.658476 2.9779,-1.913626 3.69804,-3.71841 0.467415,-1.171419 0.449054,-3.330201 -0.03891,-4.575199 -0.501121,-1.278557 -1.811257,-2.656795 -3.154727,-3.318714 -0.906489,-0.446619 -1.247574,-0.525065 -2.484329,-0.571367 -1.125412,-0.04213 -1.625839,0.0139 -2.327976,0.260684 -1.865407,0.655638 -3.247862,2.043358 -3.932273,3.947249 -0.497012,1.382586 -0.404202,3.368231 0.218231,4.668966 1.465298,3.06212 4.921897,4.486992 8.021947,3.306791 z"
     id="path105"
     inkscape:connector-curvature="0"
     clip-path="none" /><path
     style="fill:#008000;stroke-width:0.15842839"
     d="m 47.987959,83.106343 c -1.370498,-0.343145 -2.106813,-2.052506 -1.439767,-3.34243 0.751577,-1.453391 3.050218,-1.534709 3.901821,-0.138034 0.409829,0.672141 0.405213,1.775674 -0.01028,2.45716 -0.473047,0.775889 -1.585508,1.2402 -2.451775,1.023304 z m 1.360371,-1.037554 c 0.73915,-0.567501 0.808522,-1.533903 0.156886,-2.185538 -0.622625,-0.622625 -1.302889,-0.622625 -1.925514,0 -0.613467,0.613467 -0.631251,1.38511 -0.04542,1.970937 0.458421,0.458421 1.357894,0.564828 1.814052,0.214601 z"
     id="path107"
     inkscape:connector-curvature="0"
     clip-path="none" /></svg>