<?xml version="1.0" encoding="UTF-8" standalone="no"?>
<svg
   xmlns:dc="http://purl.org/dc/elements/1.1/"
   xmlns:cc="http://creativecommons.org/ns#"
   xmlns:rdf="http://www.w3.org/1999/02/22-rdf-syntax-ns#"
   xmlns:svg="http://www.w3.org/2000/svg"
   xmlns="http://www.w3.org/2000/svg"
   xmlns:sodipodi="http://sodipodi.sourceforge.net/DTD/sodipodi-0.dtd"
   xmlns:inkscape="http://www.inkscape.org/namespaces/inkscape"
   version="1.1"
   x="0px"
   y="0px"
   viewBox="0 0 100 125"
   enable-background="new 0 0 100 100"
   xml:space="preserve"
   id="svg91"
   sodipodi:docname="Euro.svg"
   inkscape:version="0.92.3 (d244b95, 2018-08-02)"><metadata
     id="metadata97"><rdf:RDF><cc:Work
         rdf:about=""><dc:format>image/svg+xml</dc:format><dc:type
           rdf:resource="http://purl.org/dc/dcmitype/StillImage" /></cc:Work></rdf:RDF></metadata><defs
     id="defs95" /><sodipodi:namedview
     pagecolor="#ffffff"
     bordercolor="#666666"
     borderopacity="1"
     objecttolerance="10"
     gridtolerance="10"
     guidetolerance="10"
     inkscape:pageopacity="0"
     inkscape:pageshadow="2"
     inkscape:window-width="1366"
     inkscape:window-height="674"
     id="namedview93"
     showgrid="false"
     inkscape:zoom="3.156"
     inkscape:cx="40.975891"
     inkscape:cy="62.143559"
     inkscape:window-x="0"
     inkscape:window-y="27"
     inkscape:window-maximized="1"
     inkscape:current-layer="svg91" /><g
     id="g85"
     transform="matrix(1.7564758,0,0,1.707065,-37.407983,-23.313046)"><path
       d="m 48.541,78.487 c -1.309,0 -2.375,1.065 -2.375,2.375 0,1.31 1.066,2.375 2.375,2.375 1.311,0 2.375,-1.065 2.375,-2.375 0,-1.31 -1.064,-2.375 -2.375,-2.375 z m 0,3.75 c -0.758,0 -1.375,-0.617 -1.375,-1.375 0,-0.758 0.617,-1.375 1.375,-1.375 0.759,0 1.375,0.617 1.375,1.375 0,0.758 -0.616,1.375 -1.375,1.375 z"
       id="path77"
       inkscape:connector-curvature="0" /><path
       d="m 49.938,41.026 c 4.017,0 7.285,-3.269 7.285,-7.286 0,-4.018 -3.269,-7.287 -7.285,-7.287 -4.019,0 -7.287,3.269 -7.287,7.287 0,4.017 3.269,7.286 7.287,7.286 z m 0,-13.572 c 3.466,0 6.285,2.82 6.285,6.287 0,3.466 -2.819,6.286 -6.285,6.286 -3.467,0 -6.287,-2.82 -6.287,-6.286 0,-3.467 2.821,-6.287 6.287,-6.287 z"
       id="path79"
       inkscape:connector-curvature="0" /><path
       d="M 72.272,19.308 55.097,13.726 c -0.125,-0.04 -0.264,-0.03 -0.381,0.03 -0.119,0.06 -0.208,0.165 -0.249,0.291 l -0.401,1.235 h -8.133 l -0.4,-1.235 c -0.041,-0.126 -0.131,-0.231 -0.249,-0.291 -0.118,-0.06 -0.257,-0.07 -0.382,-0.03 l -17.174,5.582 c -0.264,0.085 -0.407,0.368 -0.322,0.63 l 11.1,34.157 c 0.069,0.211 0.266,0.346 0.477,0.346 0.051,0 0.103,-0.008 0.154,-0.024 l 0.18,-0.059 c -0.223,0.701 -0.133,1.432 0.297,2.205 0.379,0.481 0.807,1.147 1.232,1.841 -0.479,0.395 -0.91,0.881 -1.094,1.139 -0.687,0.962 -0.748,1.971 -0.139,3.066 1.133,1.44 1.861,2.125 2.4,2.618 -0.13,0.713 -0.213,1.454 -0.213,2.226 0,1.05 1.074,2.952 3.132,6.503 l 0.657,1.137 c -0.484,0.211 -0.827,0.724 -0.827,1.323 v 8.457 c 0,0.786 0.59,1.426 1.314,1.426 H 59.82 c 0.725,0 1.314,-0.64 1.314,-1.426 v -8.457 c 0,-0.696 -0.462,-1.275 -1.068,-1.401 0.153,-0.547 0.419,-1.411 0.716,-2.372 1.27,-4.118 3.188,-10.34 3.028,-12.763 -0.003,-0.04 -0.011,-0.08 -0.022,-0.118 -0.686,-2.164 -2.645,-3.895 -5.129,-6.063 l 2.204,0.716 c 0.052,0.017 0.103,0.024 0.154,0.024 0.211,0 0.407,-0.134 0.476,-0.346 l 11.1,-34.157 C 72.68,19.675 72.535,19.393 72.272,19.308 Z M 59.467,37.264 c 1.378,-0.31 2.512,-1.176 2.954,-2.456 0.274,-0.796 0.257,-1.658 -0.052,-2.493 l -0.938,0.348 c 0.227,0.615 0.242,1.244 0.044,1.819 -0.304,0.876 -1.062,1.483 -2.009,1.753 v -2.331 l 0.105,-0.307 -0.105,-0.037 v -5.578 c 0.153,0.033 0.308,0.062 0.458,0.11 1.597,0.519 2.896,1.628 3.657,3.125 0.762,1.496 0.896,3.199 0.377,4.797 -0.686,2.112 -2.408,3.637 -4.492,4.143 V 37.264 Z M 58.426,16.471 c 0.016,0.013 0.025,0.03 0.041,0.043 v 2.521 c -0.055,0.084 -0.107,0.168 -0.17,0.247 -0.646,0.815 -1.918,0.966 -2.736,0.318 -0.842,-0.667 -0.983,-1.894 -0.316,-2.735 0.195,-0.247 0.488,-0.445 0.832,-0.583 h 1.978 c 0.129,0.057 0.267,0.107 0.371,0.189 z m -3.29,-1.244 c 0.157,-0.134 0.34,-0.214 0.537,-0.263 l 0.978,0.318 H 55.118 Z M 44.328,14.964 c 0.197,0.048 0.38,0.128 0.537,0.263 l 0.018,0.055 H 43.35 Z m -2.92,1.732 c 0.115,-0.188 0.261,-0.316 0.418,-0.414 h 2.001 c 0.116,0.048 0.239,0.082 0.348,0.143 0.453,0.256 0.78,0.673 0.919,1.174 0.139,0.501 0.075,1.026 -0.181,1.479 -0.345,0.61 -0.995,0.989 -1.696,0.989 -0.334,0 -0.664,-0.087 -0.957,-0.252 -0.368,-0.208 -0.66,-0.58 -0.852,-1.01 z m 0,3.025 c 0.178,0.211 0.375,0.4 0.605,0.53 0.367,0.208 0.783,0.317 1.203,0.317 0.881,0 1.698,-0.476 2.132,-1.243 0.321,-0.569 0.401,-1.229 0.228,-1.859 -0.13,-0.466 -0.39,-0.872 -0.745,-1.183 h 10.307 c -0.101,0.087 -0.206,0.171 -0.286,0.272 -0.838,1.058 -0.658,2.6 0.398,3.438 0.438,0.346 0.963,0.529 1.52,0.529 0.646,0 1.242,-0.261 1.697,-0.705 v 27.941 c -0.455,-0.443 -1.052,-0.705 -1.697,-0.705 -0.557,0 -1.082,0.183 -1.52,0.529 -1.057,0.837 -1.236,2.379 -0.398,3.438 0.053,0.065 0.125,0.117 0.187,0.177 h -1.39 c 0.021,-2.428 0.037,-4.839 -0.06,-6.039 -0.04,-0.502 -0.217,-0.949 -0.483,-1.337 -0.551,-1.15 -1.836,-1.823 -3.379,-1.687 -1.204,0.104 -2.174,0.697 -2.732,1.669 -0.016,0.027 -0.018,0.06 -0.027,0.089 -0.439,0.607 -0.702,1.373 -0.727,2.275 0,0.546 -0.113,2.686 -0.318,5.03 h -1 c 0.306,-0.298 0.536,-0.666 0.654,-1.088 0.174,-0.63 0.094,-1.29 -0.228,-1.859 -0.434,-0.767 -1.251,-1.243 -2.132,-1.243 -0.42,0 -0.836,0.109 -1.203,0.317 -0.23,0.13 -0.428,0.319 -0.605,0.53 V 19.721 Z m 14.48,31.476 c -0.258,-0.13 -0.487,-0.29 -0.644,-0.488 -0.667,-0.842 -0.525,-2.069 0.316,-2.735 0.348,-0.276 0.766,-0.421 1.209,-0.421 0.599,0 1.156,0.27 1.527,0.739 0.063,0.078 0.115,0.163 0.17,0.247 v 2.521 c -0.016,0.014 -0.025,0.031 -0.041,0.043 -0.052,0.041 -0.127,0.059 -0.186,0.094 z m 1.534,1.049 -0.148,-0.048 h 0.125 c 0.007,0.015 0.015,0.031 0.023,0.048 z m -6.099,-4.139 c -0.343,0.346 -0.786,0.515 -1.356,0.515 l -0.141,-0.003 c -0.576,-0.027 -0.979,-0.191 -1.269,-0.516 -0.545,-0.613 -0.76,-1.899 -0.644,-3.82 0.436,-0.486 1.069,-0.782 1.874,-0.848 1.073,-0.09 1.944,0.25 2.419,0.85 v 0.067 c 0.012,0.846 0.035,2.826 -0.883,3.755 z m -9.915,0.662 c 0.191,-0.43 0.483,-0.802 0.852,-1.01 0.293,-0.165 0.623,-0.252 0.957,-0.252 0.701,0 1.352,0.379 1.696,0.989 0.256,0.453 0.319,0.979 0.181,1.479 -0.138,0.5 -0.466,0.918 -0.919,1.174 -0.036,0.021 -0.079,0.029 -0.118,0.048 H 41.671 C 41.572,51.113 41.485,51.004 41.408,50.878 Z M 28.584,20.325 c 0.011,-0.018 0.014,-0.037 0.025,-0.054 0.07,-0.104 0.168,-0.195 0.267,-0.285 l 1.882,-0.612 c 0.385,0.021 0.734,0.111 1,0.288 0.894,0.595 1.139,1.806 0.545,2.7 -0.363,0.544 -0.971,0.87 -1.625,0.87 -0.384,0 -0.756,-0.113 -1.077,-0.326 -0.083,-0.055 -0.16,-0.12 -0.237,-0.183 z m 1.016,3.126 c 0.338,0.168 0.699,0.28 1.078,0.28 0.822,0 1.585,-0.409 2.041,-1.093 0.746,-1.124 0.439,-2.645 -0.684,-3.393 -0.109,-0.073 -0.246,-0.113 -0.371,-0.166 l 8.744,-2.842 v 10.749 c -0.215,0.046 -0.431,0.086 -0.641,0.154 -1.852,0.602 -3.357,1.888 -4.24,3.622 -0.884,1.734 -1.039,3.708 -0.438,5.56 0.809,2.486 2.853,4.277 5.318,4.834 v 7.568 c -0.005,0 -0.01,-10e-4 -0.015,-10e-4 -0.908,0 -1.737,0.512 -2.159,1.3 z m 8.126,9.703 c -0.147,0.699 -0.095,1.408 0.153,2.052 0.424,1.104 1.372,1.861 2.529,2.211 v 2.705 c -2.026,-0.537 -3.695,-2.039 -4.367,-4.108 -0.519,-1.598 -0.385,-3.301 0.377,-4.797 0.762,-1.496 2.061,-2.605 3.658,-3.125 0.109,-0.035 0.221,-0.055 0.332,-0.08 v 8.37 c -0.734,-0.296 -1.32,-0.818 -1.596,-1.536 -0.182,-0.47 -0.218,-0.971 -0.107,-1.487 z m 1.788,20.087 C 39.45,53.226 39.373,53.23 39.313,53.207 39.293,53.2 39.28,53.186 39.26,53.178 l -0.779,-2.396 c 0.026,-0.097 0.051,-0.194 0.086,-0.288 0.283,-0.76 1.018,-1.27 1.827,-1.27 0.005,0 0.01,0.001 0.015,0.001 v 2.472 c 0,0.276 0.224,0.5 0.5,0.5 h 0.459 c -0.428,0.27 -0.828,0.548 -1.141,0.813 z m 0.931,2.771 c -0.379,-0.69 -0.342,-1.287 0.121,-1.936 0.033,-0.047 0.094,-0.11 0.169,-0.181 l 3.708,-1.205 c 0.177,-0.058 0.293,-0.207 0.328,-0.376 0.344,-0.008 0.688,-0.017 1.018,-0.02 -0.094,0.974 -0.256,2.54 -0.449,3.75 -0.004,0.023 -0.008,0.046 -0.012,0.069 -0.559,-0.522 -1.178,-0.526 -1.229,-0.531 -0.275,0.002 -0.498,0.227 -0.496,0.503 0.002,0.275 0.226,0.497 0.5,0.497 10e-4,0 0.002,0 0.004,0 0.006,0 0.54,0.017 0.857,0.724 0.02,0.043 0.059,0.066 0.087,0.101 -0.104,0.333 -0.253,0.708 -0.423,1.094 -0.109,0.22 -0.213,0.432 -0.336,0.675 -0.205,0.405 -0.426,0.847 -0.647,1.308 -0.06,0.11 -0.118,0.217 -0.171,0.313 -0.3,-0.458 -0.656,-1.057 -1.026,-1.678 -0.659,-1.104 -1.407,-2.358 -2.003,-3.107 z m 2.028,7.36 c -0.019,0.061 -0.043,0.147 -0.065,0.23 -0.05,0.163 -0.097,0.326 -0.142,0.492 -0.459,-0.443 -1.044,-1.054 -1.821,-2.035 -0.379,-0.69 -0.342,-1.287 0.121,-1.936 0.13,-0.182 0.403,-0.494 0.708,-0.775 l 1.658,2.755 c -0.027,0.072 -0.062,0.161 -0.097,0.252 -0.079,0.206 -0.157,0.412 -0.23,0.625 -0.054,0.15 -0.102,0.291 -0.132,0.392 z m 17.663,13.043 v 8.457 c 0,0.231 -0.144,0.426 -0.314,0.426 H 46.077 c -0.171,0 -0.314,-0.195 -0.314,-0.426 v -8.457 c 0,-0.232 0.144,-0.428 0.314,-0.428 h 0.317 13.043 0.384 c 0.171,0 0.315,0.196 0.315,0.428 z m 2.68,-16.409 c 0.111,2.29 -1.827,8.574 -2.988,12.342 -0.396,1.286 -0.658,2.136 -0.79,2.639 H 46.684 l -0.886,-1.534 c -1.608,-2.775 -2.997,-5.172 -2.997,-6.001 0,-0.903 0.123,-1.766 0.312,-2.593 0.066,-0.264 0.163,-0.644 0.243,-0.939 0.074,-0.245 0.15,-0.487 0.232,-0.723 0.037,-0.1 0.074,-0.202 0.112,-0.303 0.256,-0.688 0.54,-1.333 0.826,-1.935 0.313,-0.58 0.701,-1.333 1.024,-2.068 0.053,-0.106 0.115,-0.228 0.164,-0.329 0.098,-0.207 0.189,-0.492 0.277,-0.81 0.014,-0.041 0.028,-0.083 0.04,-0.123 0.101,-0.335 0.194,-0.813 0.283,-1.356 0.47,-2.647 0.755,-6.537 0.868,-8.666 0.151,0.47 0.357,0.857 0.627,1.16 0.473,0.533 1.117,0.812 1.969,0.851 l 0.188,0.004 c 0.84,0 1.535,-0.273 2.068,-0.812 0.268,-0.271 0.467,-0.599 0.627,-0.948 0.006,1.209 -0.007,2.598 -0.019,3.903 -0.046,0.875 -0.107,2.597 -0.008,4.292 0.005,0.219 0.011,0.414 0.02,0.58 0.041,0.82 0.166,1.568 0.38,2.275 0.061,0.221 0.129,0.422 0.197,0.583 0.51,1.344 1.383,2.647 2.67,3.983 0.188,0.198 0.502,0.205 0.699,0.02 0.2,-0.186 0.215,-0.497 0.033,-0.7 -0.011,-0.012 -0.683,-0.768 -1.365,-1.75 0.103,0.007 0.207,0.023 0.307,0.023 0.779,0 1.431,-0.196 1.472,-0.208 0.265,-0.081 0.413,-0.361 0.331,-0.625 -0.08,-0.264 -0.359,-0.415 -0.624,-0.332 -0.335,0.103 -1.364,0.306 -2.083,0.015 -0.04,-0.016 -0.082,-0.018 -0.123,-0.023 -0.141,-0.253 -0.273,-0.508 -0.381,-0.758 -0.064,-0.169 -0.121,-0.338 -0.169,-0.495 -0.177,-0.639 -0.299,-1.523 -0.363,-2.61 -0.021,-0.921 -0.011,-2.279 0.003,-3.742 0.591,0.003 1.178,0.011 1.592,0.023 0.035,0.169 0.15,0.317 0.326,0.374 l 0.715,0.232 c 0.557,0.5 1.105,0.983 1.627,1.439 2.393,2.089 4.29,3.742 4.918,5.645 z M 60.74,53.179 c -0.019,0.008 -0.033,0.021 -0.053,0.029 -0.061,0.022 -0.137,0.019 -0.201,0.034 l -2.251,-0.731 c -0.099,-0.099 -0.184,-0.204 -0.258,-0.313 h 0.989 c 0.276,0 0.5,-0.224 0.5,-0.5 v -2.46 c 0.047,-0.003 0.094,-0.013 0.141,-0.013 0.81,0 1.544,0.51 1.826,1.27 0.035,0.094 0.061,0.191 0.086,0.288 z m 1.026,-3.155 c -0.422,-0.788 -1.25,-1.3 -2.158,-1.3 -0.048,0 -0.094,0.009 -0.141,0.013 v -7.548 c 2.522,-0.523 4.622,-2.337 5.443,-4.866 0.602,-1.851 0.447,-3.826 -0.437,-5.56 -0.884,-1.734 -2.39,-3.02 -4.24,-3.622 -0.251,-0.082 -0.509,-0.133 -0.767,-0.185 v -10.76 l 8.87,2.883 c -0.126,0.053 -0.262,0.093 -0.371,0.166 -1.123,0.748 -1.431,2.269 -0.684,3.393 0.456,0.684 1.218,1.093 2.041,1.093 0.379,0 0.74,-0.112 1.077,-0.28 z m 8.872,-27.302 c -0.077,0.063 -0.155,0.127 -0.237,0.183 -0.322,0.213 -0.693,0.326 -1.077,0.326 -0.655,0 -1.263,-0.325 -1.625,-0.87 -0.594,-0.894 -0.349,-2.105 0.544,-2.7 0.267,-0.177 0.615,-0.266 1,-0.288 l 1.883,0.612 c 0.098,0.09 0.196,0.18 0.266,0.285 0.012,0.018 0.016,0.037 0.025,0.054 z"
       id="path81"
       inkscape:connector-curvature="0" /><path
       d="m 48.522,37.4 v 0.725 h 1 v -0.561 c 0.14,0.01 0.272,0.036 0.415,0.036 0.258,0 0.506,-0.031 0.752,-0.064 v 0.589 h 1 v -0.813 c 1.803,-0.596 3.087,-2.073 3.087,-3.807 0,-0.842 -0.299,-1.651 -0.864,-2.339 L 53.141,31.8 c 0.416,0.507 0.636,1.096 0.636,1.705 0,1.195 -0.854,2.222 -2.087,2.738 v -2.952 h -1 v 3.248 c -0.243,0.039 -0.494,0.061 -0.752,0.061 -0.143,0 -0.277,-0.021 -0.415,-0.034 v -3.275 h -1 v 3.084 c -1.417,-0.456 -2.424,-1.568 -2.424,-2.871 0,-0.503 0.146,-0.983 0.433,-1.426 l -0.839,-0.544 c -0.389,0.599 -0.594,1.28 -0.594,1.97 0,1.839 1.448,3.38 3.423,3.896 z"
       id="path83"
       inkscape:connector-curvature="0" /></g><path
     style="fill:#008000;stroke-width:0.27433366"
     d="m 42.13837,123.22773 -0.683041,-0.66382 v -8.22407 -8.22406 l 0.672322,-0.65341 0.67232,-0.65341 -2.091578,-3.5078 c -1.15037,-1.92928 -2.611238,-4.542249 -3.246373,-5.806591 -1.123977,-2.237468 -1.15398,-2.368816 -1.12444,-4.922685 l 0.03035,-2.623882 -1.64366,-1.703278 c -2.241367,-2.322672 -3.054972,-3.704714 -3.054972,-5.189375 0,-1.41396 0.296927,-2.017979 1.739918,-3.539402 l 1.074431,-1.132827 -1.383983,-2.130065 c -1.316273,-2.025856 -1.502853,-2.587179 -1.397294,-4.203722 0.03682,-0.563956 -0.07548,-0.694799 -0.580303,-0.676118 -0.668137,0.02472 0.109586,2.265265 -17.340324,-49.955389 -1.914236,-5.728547 -2.9483,-9.210753 -2.782755,-9.370917 0.409804,-0.396487 30.402517,-9.799618 30.937807,-9.6994304 0.297903,0.055756 0.614569,0.5688954 0.849103,1.3759275 l 0.374024,1.2870091 7.250163,-0.072073 7.250161,-0.072073 0.46153,-1.2146233 C 58.37562,0.9836034 58.7745,0.4012397 59.008175,0.3575024 c 0.402541,-0.075347 29.350534,8.9276126 30.38013,9.4483536 0.26784,0.135473 0.486484,0.454999 0.485878,0.710071 -0.0017,0.68032 -19.368658,58.4765 -19.704322,58.802721 -0.194156,0.188694 -0.956043,0.05739 -2.394653,-0.41269 -1.160445,-0.379192 -2.1099,-0.64276 -2.1099,-0.585713 0,0.05705 1.607804,1.66123 3.572896,3.564848 2.755884,2.669668 3.787623,3.872941 4.51191,5.262046 l 0.939013,1.800928 -0.332378,2.526234 c -0.422167,3.208668 -1.771968,8.396821 -4.280906,16.454285 -1.088443,3.495534 -2.038587,6.507644 -2.11143,6.693574 -0.07284,0.18593 0.0597,0.33806 0.294544,0.33806 0.234844,0 0.686524,0.32067 1.003737,0.71259 0.553295,0.68362 0.576749,1.03078 0.576749,8.53688 0,7.95961 -0.07195,8.5763 -1.088989,9.3352 -0.331875,0.24764 -3.606415,0.33159 -13.185286,0.33806 l -12.743759,0.008 z m 26.021629,-1.21152 c 0.342126,-0.62129 0.394795,-14.85119 0.05688,-15.3685 -0.17484,-0.26768 -2.908083,-0.32575 -12.726849,-0.27045 l -12.504187,0.0704 -0.07397,7.6749 c -0.0524,5.43669 0.01839,7.78307 0.242781,8.04582 0.259544,0.30393 2.519885,0.37091 12.517006,0.37091 11.77724,0 12.210254,-0.0182 12.488332,-0.52311 z m 0.366074,-24.155226 c 3.119768,-10.091326 3.776371,-12.602802 4.3848,-16.771608 0.314825,-2.157111 -0.04227,-3.129754 -2.069563,-5.637157 -1.556624,-1.925258 -8.851573,-8.292791 -10.065224,-8.785623 -0.50408,-0.204693 -0.995075,-0.495716 -1.0911,-0.646714 -0.09603,-0.151007 -0.793319,-0.274546 -1.549543,-0.274546 h -1.374955 v 4.142266 c 0,5.353877 0.582559,8.363972 1.77805,9.187242 0.169957,0.117037 1.248197,0.177894 2.396084,0.135217 1.971043,-0.07326 2.09194,-0.04428 2.174701,0.52137 0.09334,0.637942 -0.08106,0.718316 -2.38404,1.098725 l -1.183306,0.19546 1.270062,1.571317 c 1.236625,1.529949 1.465816,2.321079 0.740434,2.555815 -0.937486,0.303373 -4.39536,-4.492313 -5.533679,-7.674601 -0.756698,-2.115414 -0.763449,-2.197571 -0.872136,-10.610476 l -0.109534,-8.478552 -0.599263,0.824524 c -0.938538,1.291324 -2.36197,1.934084 -4.283156,1.934084 -1.986003,0 -3.223567,-0.679905 -4.145713,-2.277605 l -0.602912,-1.044599 -0.180401,2.134386 c -0.741974,8.778627 -1.264215,12.777478 -1.989012,15.230034 -0.238348,0.806522 -1.117411,2.791999 -1.953477,4.41217 -1.88368,3.650295 -3.035073,6.959047 -3.442897,9.893844 -0.400421,2.881535 -0.19123,3.51521 2.972056,9.002833 1.319734,2.28944 2.661722,4.61801 2.982194,5.17458 l 0.58268,1.01195 11.018851,0.002 11.018856,0.002 2.111143,-6.828803 z M 36.663091,80.298615 c -0.798428,-1.310726 -1.548708,-2.383138 -1.667288,-2.383138 -0.118579,0 -0.592056,0.505066 -1.052171,1.122368 -1.507474,2.022466 -1.205961,3.057726 1.782119,6.118964 l 1.12863,1.156267 0.630199,-1.81566 0.630198,-1.815662 z m 3.776289,-2.352753 c 0.711824,-1.470748 1.294224,-2.912305 1.294224,-3.203455 0,-0.630706 -0.679658,-1.277768 -1.76235,-1.677826 -0.837797,-0.309571 -0.87126,-0.741512 -0.09411,-1.214853 0.359591,-0.219017 0.689303,-0.171134 1.350382,0.196112 1.087302,0.604019 1.211833,0.438176 1.451835,-1.933473 0.100071,-0.988778 0.257393,-2.375861 0.349632,-3.082404 L 43.1967,65.745336 h -1.018546 c -0.601372,0 -1.077949,0.150444 -1.163574,0.367292 -0.07976,0.202011 -1.715078,0.840943 -3.634034,1.41985 -3.066584,0.92512 -3.540202,1.147933 -3.911806,1.840303 -0.659249,1.228305 -0.299191,2.489211 1.435448,5.026876 0.864249,1.264343 2.097003,3.179648 2.739452,4.256234 0.642448,1.076585 1.243114,1.95892 1.334811,1.960745 0.09171,0.0018 0.749124,-1.200024 1.460947,-2.670774 z M 34.262949,66.632317 c 0.943837,-0.607 1.065656,-0.770379 0.632637,-0.848471 -1.07095,-0.193136 -1.231975,-0.578082 -1.231975,-2.94513 V 60.53922 l -0.891018,0.173191 c -1.02367,0.198975 -2.112427,1.088144 -2.48678,2.030913 -0.192423,0.484597 -0.07101,1.193898 0.479225,2.799619 0.7216,2.105818 0.753511,2.147365 1.532966,1.995862 0.437814,-0.0851 1.322039,-0.49302 1.964945,-0.906488 z M 70.08688,65.413362 c 0.668581,-2.006285 0.677982,-2.127505 0.235,-3.030314 -0.505798,-1.030835 -1.844975,-1.856742 -2.797046,-1.725015 -0.560532,0.07755 -0.617996,0.271417 -0.746424,2.518051 l -0.13913,2.434029 -1.252241,0.135216 c -1.484257,0.160276 -1.26902,0.379382 1.246138,1.268516 2.512089,0.888049 2.644937,0.826485 3.45371,-1.600491 z M 40.635916,63.844186 c 0.73058,-0.379998 1.37618,-1.671569 1.374923,-2.75064 -0.0028,-2.364024 -2.773969,-4.180275 -4.817507,-3.157394 -1.62178,0.811773 -1.860067,1.27543 -1.860067,3.619316 0,1.213622 0.08349,2.287722 0.185516,2.386883 0.297241,0.288878 4.529088,0.207695 5.117135,-0.09817 z m 2.784871,-0.194818 c 0.0097,-0.260305 0.172661,-2.603058 0.36225,-5.206117 0.387889,-5.325493 0.79526,-6.560527 2.72197,-8.252225 2.59918,-2.282148 7.098897,-1.798057 8.981154,0.966214 1.024814,1.505036 1.274327,3.150677 1.274327,8.404716 v 4.560695 h 1.25278 1.252783 l -0.557095,-1.010174 c -1.12557,-2.040996 -0.32131,-4.478664 1.808203,-5.480544 1.448098,-0.681292 2.242677,-0.681297 3.617634,-2.4e-5 0.600403,0.297492 1.127775,0.540895 1.17194,0.540895 0.04416,0 0.0803,-10.719864 0.0803,-23.82192 0,-13.102059 -0.09391,-23.774942 -0.208707,-23.717516 -3.0282,1.514931 -4.752854,1.201953 -6.425137,-1.165992 -0.81127,-1.148755 -0.720984,-2.9995431 0.208191,-4.2677412 l 0.619766,-0.8458967 h -9.193659 -9.193659 l 0.687303,0.9843076 c 2.472702,3.5412273 -1.92539,8.0304933 -5.535065,5.6498083 L 35.333268,10.319886 V 34.37342 58.426952 l 1.012798,-0.66797 c 3.526548,-2.32586 7.901466,1.901502 5.64312,5.452793 l -0.579247,0.910876 H 42.4066 c 0.757005,0 1.000877,-0.11381 1.01419,-0.473283 z m 21.966245,-1.913604 c 0,-2.15277 -0.06387,-2.445194 -0.651128,-2.981381 -3.280374,-2.995058 -8.106866,1.724699 -4.925494,4.816574 0.487267,0.473562 0.922355,0.551694 3.072142,0.551694 h 2.50448 z M 31.906094,60.368836 c 0.334304,-0.166593 0.866506,-0.302899 1.182672,-0.302899 0.565215,0 0.574845,-0.110395 0.574845,-6.589728 v -6.589728 l -1.649232,-0.584424 c -5.810651,-2.059068 -9.344712,-8.211335 -7.979906,-13.891798 0.923975,-3.845678 3.24519,-6.796561 6.647555,-8.450815 1.068791,-0.519653 2.17688,-0.944822 2.46242,-0.944822 0.496668,0 0.519163,-0.40428 0.519163,-9.330442 0,-5.131742 -0.07503,-9.3304419 -0.166725,-9.3304419 -0.232147,0 -14.945829,4.6324629 -15.231123,4.7953739 -0.127502,0.07281 0.132966,0.347982 0.578825,0.611497 1.697731,1.003409 2.26712,3.769289 1.113951,5.41117 -1.118431,1.592418 -3.089455,2.254696 -4.813903,1.617505 -0.574408,-0.212246 -0.718502,-0.196724 -0.627672,0.06762 0.06485,0.188708 3.491494,10.467281 7.614774,22.841276 l 7.496878,22.498173 0.834827,-0.762306 c 0.459155,-0.419267 1.108348,-0.898607 1.442652,-1.065203 z M 78.749658,39.570652 c 4.129427,-12.357442 7.508046,-22.602566 7.508046,-22.766942 0,-0.211669 -0.157029,-0.217183 -0.538257,-0.01889 -1.344671,0.699403 -3.295031,0.126562 -4.565621,-1.340969 -1.443121,-1.666806 -1.212452,-3.902647 0.558543,-5.41386 0.54241,-0.462844 0.941742,-0.870424 0.887405,-0.905734 C 82.321776,8.943595 67.423295,4.3467248 67.126255,4.3499584 66.854901,4.3528319 66.77841,6.3688799 66.77841,13.517832 v 9.164088 l 1.460947,0.458229 c 8.632528,2.707602 11.672431,13.17596 5.731073,19.735822 -1.458132,1.609928 -3.137124,2.721231 -5.31163,3.515701 l -1.741251,0.636175 v 6.442883 6.442884 l 1.193171,0.22932 c 0.777323,0.149402 1.504711,0.539311 2.087067,1.118757 0.491643,0.489192 0.927632,0.864149 0.96886,0.833241 0.04125,-0.03091 3.453588,-10.166832 7.583011,-22.524276 z m -26.52466,19.694891 c 1.229918,-0.728826 1.722918,-1.79895 2.085144,-4.526078 l 0.310421,-2.337081 -0.743267,-0.621345 c -2.234356,-1.867846 -6.844948,-1.199095 -7.28025,1.055978 -0.260619,1.350138 0.30545,4.781606 0.921983,5.589019 1.088529,1.42553 3.108843,1.785937 4.705969,0.839507 z M 71.085637,43.543814 c 2.30635,-1.609702 3.984533,-4.457741 4.457343,-7.564545 0.437989,-2.877996 -1.096731,-6.852855 -3.48379,-9.022859 -1.49538,-1.359402 -4.200659,-2.7389 -4.87671,-2.486774 -0.345148,0.128713 -0.404572,1.211462 -0.383263,6.983209 0.01387,3.756979 0.08024,6.917397 0.147491,7.02315 0.251398,0.395329 1.790274,-0.397428 2.7265,-1.40457 1.018865,-1.096037 1.452355,-2.465736 1.187573,-3.7524 -0.128767,-0.625724 -0.03414,-0.819391 0.520322,-1.064914 0.607741,-0.269117 0.695876,-0.22976 0.853655,0.381199 0.09676,0.374717 0.119932,1.337711 0.05148,2.139994 -0.20272,2.375763 -1.93402,4.357292 -4.533866,5.189156 -0.829029,0.265263 -0.835395,0.282782 -0.916399,2.521547 -0.111431,3.079798 -0.103195,3.091947 1.643983,2.422648 0.792635,-0.303639 1.965188,-0.917817 2.605678,-1.364841 z M 33.663611,42.811623 v -2.379697 l -0.935502,-0.328767 c -1.211502,-0.425761 -2.854783,-1.98573 -3.380905,-3.209494 -0.227854,-0.529991 -0.414279,-1.49641 -0.414279,-2.147601 0,-1.06569 0.06597,-1.183988 0.660286,-1.183988 0.590289,0 0.674667,0.145476 0.795969,1.372385 0.151479,1.532095 0.772941,2.511597 2.186916,3.446832 l 0.948377,0.627278 0.0742,-7.226213 c 0.04081,-3.974416 0.01563,-7.283082 -0.05584,-7.35259 -0.07152,-0.06951 -0.943997,0.243807 -1.938837,0.696254 -2.312377,1.051651 -4.147545,2.841605 -5.266149,5.136403 -0.817817,1.677735 -0.883358,2.022882 -0.883358,4.651888 0,2.514911 0.08529,3.016574 0.745794,4.386139 1.003017,2.079795 2.987903,4.079642 5.036658,5.074619 0.92441,0.448937 1.848581,0.81625 2.053713,0.81625 0.283513,0 0.372967,-0.570748 0.372967,-2.379698 z m -15.0336,-27.053462 c 1.64772,-1.195595 1.766017,-3.839563 0.234021,-5.230402 -1.149064,-1.043193 -2.232796,-1.022299 -5.305834,0.102285 -0.931096,0.340738 -0.944023,0.670153 -0.120442,3.069059 0.543092,1.581915 0.795506,1.954904 1.600085,2.364425 1.126547,0.573402 2.547565,0.452598 3.592175,-0.305377 z m 67.17539,0.391645 c 0.828279,-0.336341 0.994718,-0.602315 1.650088,-2.636865 0.833085,-2.586242 0.817767,-2.624749 -1.316926,-3.310016 -1.962254,-0.629914 -3.027472,-0.562896 -4.025501,0.253266 -2.00637,1.64076 -1.509084,4.635824 0.944472,5.688382 1.078088,0.462492 1.619278,0.463524 2.747867,0.0053 z M 39.927657,10.725531 C 42.363219,9.736514 42.707794,6.2020566 40.505379,4.7995731 39.661505,4.2621986 36.184997,4.1750412 35.667195,4.6782686 c -0.200965,0.1953138 -0.33393,1.1405381 -0.33393,2.3738534 0,2.315731 0.368956,3.079488 1.774925,3.674187 1.123105,0.475051 1.648026,0.474906 2.819467,-7.83e-4 z m 24.603197,-0.581212 c 0.836672,-0.684205 0.856178,-0.754411 0.856178,-3.0812101 0,-2.7559426 0.0463,-2.7093708 -2.69299,-2.7093708 -2.207737,0 -3.259248,0.6033781 -3.733723,2.1424868 -0.413591,1.3416131 0.0317,2.7247291 1.179403,3.6632861 1.186417,0.970221 3.194636,0.963274 4.391132,-0.01519 z M 41.380065,2.6634418 c -0.15046,-0.4181338 -2.066332,-0.3932464 -2.504435,0.032532 -0.233639,0.2270687 0.06318,0.3055256 1.155854,0.3055256 1.055539,0 1.435913,-0.095358 1.348581,-0.3380576 z m 20.66766,0.089088 c 0,-0.3440486 -1.534251,-0.6405997 -2.219953,-0.4290899 -1.025603,0.3163586 -0.583615,0.6780482 0.828575,0.6780482 0.765258,0 1.391378,-0.1120344 1.391378,-0.2489583 z"
     id="path99"
     inkscape:connector-curvature="0" /><path
     style="fill:#008000;stroke-width:0.27433366"
     d="m 47.854624,41.066995 c -7.94e-4,-0.463725 -0.290502,-0.724177 -1.21763,-1.094667 -3.645856,-1.456918 -5.536596,-5.118849 -4.2219,-8.176847 0.448835,-1.043997 0.500087,-1.0698 1.236772,-0.622675 0.481102,0.292001 0.488958,0.385865 0.106724,1.274954 -0.889533,2.069068 0.234199,4.513724 2.666133,5.800113 l 1.43095,0.756913 v -2.721355 -2.721355 h 0.834827 0.834827 v 2.839701 2.839699 h 1.113103 1.113102 v -2.839699 -2.839701 h 0.695688 c 0.693248,0 0.69569,0.009 0.69569,2.569252 0,1.41309 0.06883,2.569252 0.152954,2.569252 0.781504,0 2.80337,-1.702968 3.430625,-2.889532 0.447103,-0.845774 0.382134,-3.058954 -0.117104,-3.989398 -0.393253,-0.732908 -0.385802,-0.832888 0.09704,-1.302144 0.511809,-0.497412 0.531955,-0.494894 0.942028,0.117736 2.20636,3.296233 0.557435,7.637338 -3.531684,9.297819 -0.742767,0.301618 -0.973855,0.555032 -0.973855,1.067945 0,0.537024 -0.140132,0.67249 -0.69569,0.67249 -0.50386,0 -0.695689,-0.145186 -0.695689,-0.526565 0,-0.441218 -0.180415,-0.519574 -1.113102,-0.483427 -0.866924,0.0336 -1.113103,0.150051 -1.113103,0.526565 0,0.356843 -0.218597,0.483427 -0.834827,0.483427 -0.679918,0 -0.835019,-0.112905 -0.835869,-0.608507 z"
     id="path103"
     inkscape:connector-curvature="0" /><path
     style="fill:#008000;stroke-width:0.27433366"
     d="m 46.68627,46.021378 c -4.726471,-1.468725 -8.068663,-5.211396 -8.87119,-9.934179 -0.648963,-3.819078 0.861451,-7.979678 3.884218,-10.699503 4.015676,-3.613223 9.276759,-4.404028 14.087226,-2.117481 7.972271,3.789439 9.580969,14.158293 3.097703,19.966249 -3.326899,2.980361 -8.078157,4.06512 -12.197957,2.784914 z m 7.570082,-1.623908 c 3.038046,-1.12406 5.230609,-3.266683 6.495518,-6.347566 0.821002,-1.999687 0.788752,-5.68487 -0.06835,-7.810162 -0.880206,-2.18258 -3.181427,-4.535322 -5.541201,-5.665259 -1.592226,-0.76241 -2.191333,-0.896322 -4.363663,-0.975363 -1.976758,-0.07192 -2.855746,0.02373 -4.089034,0.445007 -3.276542,1.119215 -5.70479,3.488143 -6.906941,6.738209 -0.87299,2.360164 -0.709971,5.74979 0.383317,7.970227 2.57376,5.227238 8.645192,7.659587 14.090354,5.644907 z"
     id="path105"
     inkscape:connector-curvature="0" /><path
     style="fill:#008000;stroke-width:0.27433366"
     d="m 46.881703,118.55488 c -2.407247,-0.58577 -3.700566,-3.50376 -2.528917,-5.70575 1.320127,-2.48103 5.357634,-2.61984 6.853455,-0.23563 0.719854,1.1474 0.711747,3.03119 -0.01806,4.19453 -0.830895,1.3245 -2.784907,2.1171 -4.306484,1.74685 z m 2.389459,-1.77117 c 1.298299,-0.96877 1.420149,-2.61848 0.275565,-3.73086 -1.093625,-1.06286 -2.288492,-1.06286 -3.382118,0 -1.07754,1.04723 -1.108777,2.36448 -0.07978,3.36452 0.805205,0.78255 2.385107,0.9642 3.186338,0.36634 z"
     id="path107"
     inkscape:connector-curvature="0" /></svg>