<?xml version="1.0" encoding="UTF-8" standalone="no"?>
<!-- Generator: Adobe Illustrator 16.0.0, SVG Export Plug-In . SVG Version: 6.00 Build 0)  -->

<svg
   xmlns:dc="http://purl.org/dc/elements/1.1/"
   xmlns:cc="http://creativecommons.org/ns#"
   xmlns:rdf="http://www.w3.org/1999/02/22-rdf-syntax-ns#"
   xmlns:svg="http://www.w3.org/2000/svg"
   xmlns="http://www.w3.org/2000/svg"
   xmlns:sodipodi="http://sodipodi.sourceforge.net/DTD/sodipodi-0.dtd"
   xmlns:inkscape="http://www.inkscape.org/namespaces/inkscape"
   version="1.1"
   id="Capa_1"
   x="0px"
   y="0px"
   width="512px"
   height="512px"
   viewBox="0 0 60.734 60.733"
   style="enable-background:new 0 0 60.734 60.733;"
   xml:space="preserve"
   sodipodi:docname="facebook.svg"
   inkscape:version="0.92.3 (d244b95, 2018-08-02)"><metadata
   id="metadata162"><rdf:RDF><cc:Work
       rdf:about=""><dc:format>image/svg+xml</dc:format><dc:type
         rdf:resource="http://purl.org/dc/dcmitype/StillImage" /></cc:Work></rdf:RDF></metadata><defs
   id="defs160" /><sodipodi:namedview
   pagecolor="#ffffff"
   bordercolor="#666666"
   borderopacity="1"
   objecttolerance="10"
   gridtolerance="10"
   guidetolerance="10"
   inkscape:pageopacity="0"
   inkscape:pageshadow="2"
   inkscape:window-width="1366"
   inkscape:window-height="674"
   id="namedview158"
   showgrid="false"
   inkscape:zoom="0.953125"
   inkscape:cx="290.9377"
   inkscape:cy="256"
   inkscape:window-x="0"
   inkscape:window-y="27"
   inkscape:window-maximized="1"
   inkscape:current-layer="Capa_1" />
<g
   id="g125">
	<path
   d="M57.378,0.001H3.352C1.502,0.001,0,1.5,0,3.353v54.026c0,1.853,1.502,3.354,3.352,3.354h29.086V37.214h-7.914v-9.167h7.914   v-6.76c0-7.843,4.789-12.116,11.787-12.116c3.355,0,6.232,0.251,7.071,0.36v8.198l-4.854,0.002c-3.805,0-4.539,1.809-4.539,4.462   v5.851h9.078l-1.187,9.166h-7.892v23.52h15.475c1.852,0,3.355-1.503,3.355-3.351V3.351C60.731,1.5,59.23,0.001,57.378,0.001z"
   fill="#067a00"
   id="path123" />
</g>
<g
   id="g127">
</g>
<g
   id="g129">
</g>
<g
   id="g131">
</g>
<g
   id="g133">
</g>
<g
   id="g135">
</g>
<g
   id="g137">
</g>
<g
   id="g139">
</g>
<g
   id="g141">
</g>
<g
   id="g143">
</g>
<g
   id="g145">
</g>
<g
   id="g147">
</g>
<g
   id="g149">
</g>
<g
   id="g151">
</g>
<g
   id="g153">
</g>
<g
   id="g155">
</g>
<path
   style="stroke-width:1.04918027;fill:#2e7a32;opacity:0.02;fill-opacity:1"
   d="M 20.976814,510.60004 C 13.383259,508.29018 5.6717251,501.40622 2.258707,493.89069 0.6626047,490.37604 0.52459016,471.45119 0.52459016,256.10492 V 22.137705 L 2.715434,17.404616 C 5.5754368,11.22588 10.749488,6.1485866 17.289492,3.1031032 L 22.557377,0.65000687 H 256 489.44262 l 5.26788,2.45309633 c 6.54001,3.0454834 11.71406,8.1227768 14.57406,14.3015128 l 2.19085,4.733089 V 255.58033 c 0,190.33623 -0.25498,234.16243 -1.38086,237.34075 -2.25972,6.37913 -9.92531,14.02763 -16.53894,16.50211 -5.59714,2.09416 -7.72486,2.15714 -72.87365,2.15714 h -67.10819 v -98.62295 -98.62295 h 33.32311 33.3231 L 424.80242,278.4 c 2.52033,-19.76393 4.8195,-37.46885 5.10925,-39.34426 l 0.52681,-3.40984 h -38.52562 -38.52564 l 0.43172,-31.21311 c 0.31351,-22.66518 0.8168,-32.21876 1.83783,-34.88525 2.07062,-5.40761 5.5938,-10.26385 9.57997,-13.20475 6.98608,-5.15417 11.96279,-5.9378 41.07234,-6.4672 l 27.0304,-0.49158 -0.2763,-34.7707 -0.27629,-34.770687 -6.81968,-0.721558 c -3.75082,-0.396857 -20.27541,-1.038268 -36.72131,-1.425359 -28.18098,-0.663302 -30.53556,-0.572372 -40.91803,1.580185 -24.4619,5.071591 -41.86345,15.388279 -55.20816,32.730739 -10.04769,13.05772 -16.97284,31.68527 -19.24663,51.77042 -0.58794,5.19344 -1.07285,23.48852 -1.07759,40.65574 l -0.009,31.21311 H 239.7377 206.68852 v 39.34426 39.34427 h 33.04918 33.04919 v 98.62295 98.62295 L 148.19672,511.4901 C 79.672131,511.44055 22.423173,511.04 20.976814,510.60004 Z"
   id="path164"
   inkscape:connector-curvature="0"
   transform="matrix(0.11862109,0,0,0.11862109,0,-5e-4)" /><path
   style="opacity:0.02000002;fill:#2e7a32;fill-opacity:1;stroke-width:1.04918027"
   d="M 21.081732,510.60004 C 13.139281,508.18405 4.632901,500.36408 2.0797815,493.13139 0.86219268,489.68212 0.6295082,451.569 0.6295082,255.58033 V 22.137705 L 3.6486857,15.988893 C 6.7746137,9.6226752 12.46981,4.5469891 19.321645,2.020803 21.839411,1.092534 80.164908,0.77201028 256.10492,0.71957697 l 233.44262,-0.0695701 5.28588,2.46143243 c 6.23739,2.9045168 13.65311,10.8681597 15.15486,16.2746137 0.69373,2.497509 1.05425,83.849447 1.05135,237.243457 l -0.004,233.44262 -2.46994,5.30425 c -1.36404,2.92929 -4.50985,7.05032 -7.02589,9.20396 -8.26253,7.07224 -7.42201,6.99999 -81.4284,6.99999 H 353.67869 V 412.97212 314.3639 l 33.28306,-0.27703 33.28308,-0.27703 4.95352,-37.7705 c 2.72445,-20.77377 4.97985,-38.36065 5.01202,-39.08196 0.0457,-1.0263 -8.2688,-1.31148 -38.2366,-1.31148 h -38.29508 v -27.66007 c 0,-15.21305 0.47916,-30.18672 1.06481,-33.27481 1.55183,-8.18278 4.92772,-14.37377 9.73792,-17.85827 7.86537,-5.69763 12.31843,-6.43859 41.93258,-6.97716 l 27.0304,-0.49158 -0.27631,-34.7707 -0.27629,-34.770687 -6.81967,-0.721558 c -3.75082,-0.396857 -20.27541,-1.038268 -36.72131,-1.425359 -28.12946,-0.662089 -30.54973,-0.569324 -40.83675,1.565199 -6.01432,1.24795 -14.52431,3.653135 -18.91109,5.344856 -23.40047,9.024175 -42.02535,28.961529 -50.22193,53.760989 -5.31022,16.06652 -6.48925,27.80589 -6.48925,64.61218 v 32.6375 l -33.31147,0.27703 -33.31148,0.27703 v 38.81967 38.81968 l 33.31148,0.27703 33.31147,0.27703 v 98.60822 98.60821 L 148.30164,511.4901 C 79.777049,511.44055 22.528091,511.04 21.081732,510.60004 Z"
   id="path4675"
   inkscape:connector-curvature="0"
   transform="matrix(0.11862109,0,0,0.11862109,0,-5e-4)" /></svg>