<?xml version="1.0" encoding="UTF-8" standalone="no"?>
<svg
   xmlns:dc="http://purl.org/dc/elements/1.1/"
   xmlns:cc="http://creativecommons.org/ns#"
   xmlns:rdf="http://www.w3.org/1999/02/22-rdf-syntax-ns#"
   xmlns:svg="http://www.w3.org/2000/svg"
   xmlns="http://www.w3.org/2000/svg"
   xmlns:sodipodi="http://sodipodi.sourceforge.net/DTD/sodipodi-0.dtd"
   xmlns:inkscape="http://www.inkscape.org/namespaces/inkscape"
   version="1.1"
   x="0px"
   y="0px"
   viewBox="0 0 480.9 420.75"
   style="enable-background:new 0 0 480.9 336.6;"
   xml:space="preserve"
   id="svg131"
   sodipodi:docname="noun_Pinky Promise_1595897.svg"
   inkscape:version="0.92.3 (unknown)"><metadata
     id="metadata137"><rdf:RDF><cc:Work
         rdf:about=""><dc:format>image/svg+xml</dc:format><dc:type
           rdf:resource="http://purl.org/dc/dcmitype/StillImage" /></cc:Work></rdf:RDF></metadata><defs
     id="defs135" /><sodipodi:namedview
     pagecolor="#ffffff"
     bordercolor="#666666"
     borderopacity="1"
     objecttolerance="10"
     gridtolerance="10"
     guidetolerance="10"
     inkscape:pageopacity="0"
     inkscape:pageshadow="2"
     inkscape:window-width="1920"
     inkscape:window-height="970"
     id="namedview133"
     showgrid="false"
     inkscape:zoom="1.8752228"
     inkscape:cx="240.45"
     inkscape:cy="210.375"
     inkscape:window-x="0"
     inkscape:window-y="27"
     inkscape:window-maximized="1"
     inkscape:current-layer="svg131" /><style
     type="text/css"
     id="style117">
	.st0{stroke:#000000;stroke-width:2;stroke-miterlimit:10;}
</style><g
     id="g125"><g
       id="g123"><path
         class="st0"
         d="M92.8,59.1c-9.4,3.4-18.8,6.7-28.1,10.3c-1.9,0.8-4.3,2.4-5,4.2c-1.7,4.8-3,9.7-3.6,14.8    c-1.2,9.8-1.6,19.7-2.6,29.6c-1,9.6,0.8,18.5,4.6,27.2c7,15.8,10.1,32.4,9.2,49.7c-0.4,8.2-2.5,15.9-7.8,22.4    c-8,9.7-16.1,19.3-24.2,29c-7,8.4-14,16.8-21,25.2c-0.8,1-1.5,2.2-2.6,2.8c-0.9,0.5-2.2,0.4-3.3,0.6c0.1-1-0.1-2.4,0.4-3.1    c4.6-5.9,9.2-11.7,14-17.4c10.6-12.6,21.2-25.1,31.9-37.5c7.1-8.3,8.9-18.2,8.7-28.7c-0.3-15.1-3.8-29.4-9.8-43.3    c-3.5-8.2-5.2-16.7-4.2-25.9c1.4-12,1.7-24.2,3.1-36.2c0.5-4.4,2.4-8.8,4.4-12.8c1-1.9,3.5-3.4,5.7-4.2c6.9-2.4,14-4.4,20.9-6.7    c2-0.6,3.8-1.8,5.7-2.7c4.2-2,8.5-3.9,12.6-6c1.6-0.8,2.8-2.3,4.2-3.4c1.5-1.2,2.7-3.1,4.4-3.6c12.8-4,23.6-2.1,32.5,9.7    c1.6,2.1,1.8,5.3,2.5,7.5c5.5,1.9,11.5,3.2,16.9,5.9c6.1,3,6.9,9.5,7.3,14.6c4.3,2.1,8.2,3.6,11.7,5.8c2.5,1.5,4.1,1.1,6.5-0.1    c3.9-2,8-3.8,12.2-4.9c4.9-1.3,8.1,0.6,10.9,4.9c0.6,0.9,1.8,2.1,2.7,2.1c8.5-0.4,15.1,3.4,20.5,12.5c0.1-1.6,0.3-2.5,0.2-3.4    c-0.9-9.7,4-16.9,9.9-23.7c3.4-3.9,7.3-7,12.7-7.2c3.1-0.1,6.2,0.5,9.4,0.8c8.6-18,18.4-21.7,35.7-19.6c0.5-2.4,1-4.9,1.7-7.3    c2.4-8.8,7.5-15.2,16.4-18c3.8-1.2,7.8-1.8,11.7-2.8c1.2-0.3,2.3-1.2,3.3-2c5.8-4.9,14.5-4.8,19.4,1.1c3.8,4.6,7.9,8.6,12.9,12    c4.3,2.9,9,2.9,13.7,3c7.7,0.2,15.3,0.9,22.6,3.8c6.5,2.5,11.3,6.9,15.3,12.3c7.7,10.1,15.1,20.3,22.9,30.3    c9.7,12.5,13.7,26.8,15.9,42.2c2.5,18-0.9,35.2-4.7,52.5c-3,13.7-4.3,27.4,0.3,41c5,14.7,12.5,28,21.3,40.7    c0.6,0.9,0.4,2.4,0.6,3.7c-1.3-0.3-3.2-0.2-3.8-1c-2.7-3.8-5.2-7.7-7.5-11.8c-7.1-12.2-13.8-24.6-16.5-38.7    c-2.4-12.3-0.5-24.4,2-36.4c2.6-12.5,5.8-25,5.2-37.9c-0.5-11.6-1.9-23.1-5.8-33.9c-2.2-5.9-5.7-11.5-9.4-16.7    c-5.3-7.5-11.3-14.5-16.9-21.8c-1.6-2-3.2-4.1-4.4-6.3c-6.3-11-16.1-16.5-28.5-17.6c-3.8-0.3-7.7-0.6-11.5-0.6    c-9.7-0.1-17.8-4.3-23.8-11.4c-3.8-4.5-8.5-5.5-13.5-6.2c-4.5-0.7-10.6,5.5-10,10.1c0.6,4.3,1.5,8.8,3.3,12.8    c4.8,10.3,9.9,20.6,17.6,29.2c4.2,4.6,9.4,7.2,15.4,8.1c1.3,0.2,2.6,0,3.8,0.3c6.2,1.6,10.8-0.1,13.4-6.1c0.3-0.6,0.7-1.4,1.2-1.6    c0.9-0.4,2-0.4,3.1-0.5c0.1,1,0.7,2.5,0.2,3.1c-3.3,3.8-4.9,9.4-12.2,9.6c5.7,7.3,8.5,15.5,17.3,18.6c1,0.3,1.6,1.8,2.3,2.8    c-1.2,0.4-2.7,1.5-3.5,1.1c-3.1-1.6-6.5-3.1-8.6-5.6c-4-4.8-7-10.4-10.8-15.3c-1.2-1.5-3.9-1.8-6.2-2.8c2.5,7.9,4.7,14.8,6.8,21.8    c4.2,14.3,1.4,26.6-10.9,36c4.2,12.2,3.2,19.8-4.2,25.2c-7.9,5.8-12,8.2-22.3,1.5c-6.2,3.7-12.9,4.5-19.8,3.5    c-6-0.8-11.6-2.8-16.3-6.6c-11.2-9.1-22.2-18.5-33.5-27.4c-4-3.2-8.7-5.5-13.3-8c-0.8-0.5-2.4-0.2-3.3,0.3    c-4.3,2.2-8.1,1-11.8-1.5c-3.4-2.4-3.5-2-5.5,1.6c-2.3,4.2-5.2,8.2-8.2,11.9c-4.2,5.1-8.7,9.9-13.7,15.4c4.1,2.5,7.5,4.9,11.2,6.8    c7.5,3.8,13.3,9.3,17.8,16.3c10.9,16.9,21.6,34,32.9,50.7c5.6,8.3,12,16.1,18.7,23.5c15.9,17.4,32.6,34,51.5,48.2    c1.8,1.3,3.9,2.2,5.5,3.7c0.9,0.8,1.1,2.4,1.6,3.6c-1.4,0-3.1,0.6-4-0.1c-6.8-5.1-13.6-10.2-20-15.8c-19.2-17-37.5-35-53-55.6    c-1.9-2.5-3.7-5.1-5.4-7.7c-7.7-11.5-15.4-23-23-34.6c-2.1-3.2-4-6.6-5.8-9.9c-4.7-8.3-10.8-15.1-19.7-19.2    c-3.6-1.7-6.9-4.2-10.9-6.7c-1.4,4.9-2.8,9.5-4.2,14.1c-3.9,13.5-9.9,26.1-18.1,37.6c-4.2,6-7.9,12.4-12.6,18    c-6.2,7.4-13.2,14.1-19.8,21.2c-8.7,9.5-17.4,19.1-25.9,28.8c-11.6,13.1-22.9,26.4-34.5,39.5c-0.7,0.8-2.4,0.8-3.6,1.2    c0.3-1.3,0.1-3,0.9-3.9c16.5-19.3,32.9-38.7,49.7-57.7c7.1-8,15.2-15.1,22.4-23.1c5.2-5.7,9.9-12,14.6-18.2    c3.4-4.5,6.5-9.1,9.4-13.9c6.6-10.8,11.7-22.2,14.7-34.6c0.7-2.9,1.4-6,2.8-8.6c1.7-3.2,3.9-6.2,6.3-9    c5.4-6.3,11.2-12.1,16.4-18.6c1.9-2.4,3-5.8,3.7-8.9c1.4-6.8,1.3-13.6-0.5-20.4c-1.9-7-8.6-11.8-16.3-11.2    c0.3,2.8,0.8,5.6,0.9,8.5c0.3,13.1-10.2,23.6-23.2,22.9c-2.4-0.1-5.3-1.9-7-3.8c-5.3-5.9-7.8-17.5-3.1-29.1    c-2.8-1.5-5.5-3.3-8.4-4.6c-1.1-0.5-2.8-0.4-4,0.1c-6.6,2.8-11,7.6-13.1,14.5c-0.3,1.1-1.7,1.8-2.6,2.7c-0.4-1.4-1.3-3-1-4.2    c1.8-6.3,5.6-11.1,11.1-14.8c1.2-0.8,2.2-2.7,2.2-4.1c0.2-7.1-3.1-11.2-9.9-13.3c-0.1,0-0.2-0.1-0.3-0.1    c-12-4.9-18.2-0.2-24.1,9.2c-3.4,5.4-7.2,10.6-11,15.8c-0.7,0.9-2.5,1-3.7,1.5c0.2-1.3,0-2.8,0.6-3.8c3.8-5.7,7.5-11.5,11.7-17    c2.6-3.4,5.6-6.5,8.9-9.2c2.9-2.5,4-6.2,1.8-9.3C133.6,46.5,121.7,43,112,47c-1.2,0.5-2.4,1.5-3.3,2.5c-4.7,5.3-9.4,10.6-14,16.1    c-1.8,2.1-3.4,4.4-4.8,6.8c-5,9.2-9.8,18.5-14.9,27.7c-3.7,6.7-4.9,14-5.6,21.4c-0.2,1.7-0.2,3.5-0.7,5.2    c-0.3,0.9-1.4,1.5-2.2,2.2c-0.7-0.8-1.9-1.7-1.9-2.5c0.9-8.4,1.4-16.8,4.7-24.9C74.1,89.7,79.7,78.5,87,68.2    c2.1-2.9,4.4-5.6,6.6-8.3C93.4,59.6,93.1,59.4,92.8,59.1z M294.6,51.7c-11.4-1.3-17.9,5.6-23.1,14.2c-1.4,2.3-1.3,4.1,0.8,6.4    c2.4,2.7,4,6.2,5.4,9.6c1.9,4.5,3,9.3,4.7,13.9c4.3,11.9,12.2,21.7,19,32.1c3.4,5.2,6.5,10.8,10.9,14.9    c8.1,7.6,16.8,14.7,25.8,21.4c8.4,6.3,10.3,5.3,18.9-0.7c2.8-1.9,3.8-4.6,4.3-8c1.1-7.8-2.4-13.9-6.7-19.6    c-6.3-8.1-13.3-15.6-19.6-23.6c-2.7-3.5-5.4-7.5-6.5-11.8c-3.6-13.2-8.7-25.8-14.9-37.9C309.5,55,303.7,50.6,294.6,51.7z     M333.5,165.9c-3-2.4-5.4-4.5-7.9-6.3c-10-7.1-18.9-15.1-25.2-25.7c-2.5-4.1-5.1-8.1-7.9-12c-8.2-11.3-14.5-23.6-18.1-37.1    c-1.2-4.7-3.3-8.5-7.7-11.4c-4.9-3.2-9.8-3.8-14.3-0.9c-6.8,4.4-11.8,10.8-13.6,18.8c-3.8,16.1,7.4,29.8,19.6,34    c1.4,0.5,2.9,1.2,3.9,2.2c7.1,6.5,13.9,13.3,21.3,19.5c7.6,6.3,15.4,12.5,23.8,17.7C315.2,169.4,324.1,169.3,333.5,165.9z     M327.7,24.6c-12.5,2.3-19.8,10-21.2,21.9c-0.2,1.7,0.2,2.7,1.6,4.1c3.3,3.2,6.9,6.5,8.9,10.5c4.7,9.6,8.4,19.6,12.6,29.5    c2.3,5.5,2.3,11.9,6.5,16.8c7.9,9.3,15.4,18.9,23.1,28.4c1.6,2,3.3,1.4,4.8-0.1c6.1-5.9,9.3-13.4,7.7-21.5    c-1.9-9.7-5.4-19.2-8.5-28.7c-0.4-1.3-2.1-2.2-3.4-3.1c-3.6-2.5-7.6-4.6-10.7-7.6c-8-7.8-12.6-17.9-17.4-27.7    C328.3,40.5,325.3,33.1,327.7,24.6z M209,93c-1.8,0.9-3.4,1.5-4.8,2.5c-2.2,1.7-4.3,3.6-6.4,5.4c-4.4,3.9-7.7,3.5-10.9-1.4    c-0.8-1.2-1.6-2.3-2.4-3.5c-1.7,7.8-2.3,15.2,2.8,21.6c0.9,1.2,2.5,2.5,3.8,2.6c6.6,0.3,12.3-1.6,16.2-7.6    C211.6,106.5,212,100.2,209,93z M207.1,88.6c-2.5-5-10.7-4-19.7,3.3c0.9,1.7,1.9,3.5,2.8,5.3c1.4,2.8,2.9,2.5,5.1,0.6    C199.2,94.6,203.1,91.7,207.1,88.6z M235.2,110c0,4.3,0,7.7,0,10.9c2.2,1.7,4.2,3.4,6.3,4.8c3.1,2.1,4.7,2,6.2,0.5    C243.7,121,239.7,115.8,235.2,110z"
         id="path119" /><path
         class="st0"
         d="M92.8,59.1c0.3,0.3,0.6,0.5,0.9,0.8C93.4,59.6,93.1,59.4,92.8,59.1z"
         id="path121" /></g></g><path
     style="fill:#008000;stroke-width:0.53326994"
     d="m 89.231775,320.49711 c 0.187972,-1.23288 0.608978,-2.59708 0.935558,-3.03156 1.181785,-1.57223 35.415457,-41.55462 42.928507,-50.13732 4.2363,-4.83942 12.533,-13.71837 18.43712,-19.73099 11.31657,-11.52452 15.02764,-15.76664 23.41994,-26.7713 13.18555,-17.28995 20.87295,-32.27097 25.69811,-50.07989 2.84851,-10.51343 4.40252,-13.08718 14.95351,-24.76607 12.09116,-13.38371 12.90473,-14.5539 14.33445,-20.61809 0.9303,-3.94587 1.0486,-13.30416 0.22454,-17.76195 -1.40665,-7.609214 -5.8956,-12.137423 -13.20543,-13.320888 l -2.32108,-0.375784 0.29327,1.522603 c 1.88826,9.803279 -0.28867,17.842249 -6.4193,23.705209 -3.23597,3.09466 -5.48042,4.41767 -9.42707,5.55681 -4.60621,1.32952 -9.54383,0.92109 -12.4616,-1.0308 -4.71026,-3.15102 -7.60851,-9.53971 -8.00532,-17.6464 -0.24797,-5.06593 -0.0306,-6.657062 1.75048,-12.813274 0.26746,-0.924493 -0.34077,-1.418936 -4.11774,-3.347368 -5.06089,-2.58397 -5.92102,-2.546945 -10.60119,0.456308 -3.53343,2.267395 -5.68661,4.852208 -7.74511,9.297733 -0.95343,2.059001 -2.43218,4.410161 -3.28611,5.224811 l -1.55262,1.48118 -0.62208,-2.07632 c -0.95672,-3.19327 -0.77297,-4.440664 1.24979,-8.483917 1.44763,-2.893646 2.95838,-4.76601 6.66587,-8.261445 5.23951,-4.939818 5.4927,-5.558193 4.2054,-10.270908 -1.29891,-4.755157 -5.56032,-7.766863 -13.6416,-9.641035 -4.22221,-0.979198 -6.89056,-0.6554 -10.47266,1.270841 -3.01429,1.620901 -5.16061,4.098073 -10.48659,12.103084 -6.13587,9.222286 -9.44428,13.478399 -10.77533,13.861958 -3.25935,0.939222 -3.09605,1.001593 -3.09605,-1.182537 0,-1.718745 0.85811,-3.333294 5.2136,-9.809447 6.53541,-9.717496 9.96668,-14.039233 14.15428,-17.827573 3.70873,-3.355117 4.5831,-4.644689 4.61037,-6.799634 0.0274,-2.164933 -1.12583,-4.068011 -4.21772,-6.960113 -6.07568,-5.683083 -14.68665,-7.524379 -22.59177,-4.830833 -2.24623,0.76537 -3.43197,1.881861 -10.06312,9.475475 -4.134276,4.734331 -8.442521,9.828 -9.57388,11.319265 -2.918283,3.846642 -19.003817,33.875129 -20.543388,38.350399 -1.273987,3.70328 -2.448333,10.07248 -3.109631,16.86546 -0.288771,2.96629 -0.593732,3.77296 -1.899241,5.02371 -1.508386,1.44513 -1.587214,1.46106 -2.617342,0.5288 -1.648887,-1.49222 -1.724648,-2.38522 -0.823577,-9.70765 1.482859,-12.05023 2.711155,-16.01792 9.083017,-29.340191 4.701052,-9.828949 9.681937,-18.198296 14.676442,-24.660742 2.056156,-2.660482 3.534604,-4.83724 3.285445,-4.83724 -1.167888,0 -27.250725,9.83161 -28.774725,10.846284 -2.094786,1.394704 -2.920442,3.039378 -4.326431,8.618069 -1.413289,5.607665 -2.001979,10.20363 -3.278674,25.59696 -1.892423,22.81726 -1.462799,26.97817 4.266775,41.32375 3.417841,8.55751 6.326903,18.82258 7.557599,26.66817 0.426072,2.71613 0.711041,9.02102 0.711041,15.73146 0,10.1066 -0.119772,11.61236 -1.228206,15.4408 -0.675514,2.33317 -2.05799,5.81276 -3.072163,7.73241 -1.221023,2.31118 -10.038216,13.30859 -26.099849,32.5535 -13.340739,15.98477 -24.676754,29.34589 -25.191144,29.69137 -0.51439,0.34549 -1.783111,0.78238 -2.8193817,0.97088 l -1.8841279,0.34272 0.2019146,-2.11727 c 0.1668313,-1.7494 1.2004567,-3.37044 5.948803,-9.32954 5.760325,-7.22913 17.563422,-21.31041 33.914501,-40.46054 13.133734,-15.38203 14.767924,-19.23142 14.784018,-34.82433 0.01483,-14.35882 -2.384266,-25.97751 -8.713363,-42.1984 -4.242081,-10.87207 -4.939535,-13.95304 -4.993967,-22.06063 -0.04149,-6.18033 1.694267,-30.108393 2.93735,-40.492397 0.903929,-7.550894 3.892905,-14.92413 7.008935,-17.28971 1.694437,-1.286358 5.786308,-2.79183 19.706942,-7.250536 3.722053,-1.192154 10.142506,-3.845512 14.267675,-5.896351 4.125168,-2.050839 7.710293,-3.728799 7.966933,-3.728799 0.25665,0 2.4136,-1.68244 4.79324,-3.738756 3.47688,-3.004493 4.92948,-3.896104 7.39639,-4.539945 11.19614,-2.922084 20.21408,-0.504603 27.76314,7.442593 2.79588,2.943335 3.93137,4.577346 4.35999,6.27417 1.0992,4.35145 1.13987,4.388956 6.48566,5.980567 8.66372,2.579464 12.47599,4.40304 14.85509,7.105837 2.05733,2.337242 3.73282,6.373392 3.73282,8.99211 0,0.656023 0.14384,1.567622 0.31965,2.02577 0.33341,0.868862 12.73312,7.253282 14.0872,7.253282 0.42643,0 3.17864,-1.071649 6.11603,-2.38144 7.58648,-3.382841 11.78574,-4.412558 14.58026,-3.575298 2.0899,0.62615 4.31927,2.426523 6.88834,5.562811 0.97546,1.190829 1.63126,1.460467 3.55206,1.460467 5.4724,0 11.81283,3.176017 15.61547,7.822014 l 2.03348,2.484478 0.3646,-3.9722 c 0.44834,-4.884614 2.01339,-9.234081 4.9891,-13.865296 3.12653,-4.865939 8.6862,-10.618312 12.07933,-12.498008 2.6815,-1.485476 3.16179,-1.568422 9.08176,-1.568422 h 6.25054 l 2.69535,-4.377082 c 6.95547,-11.295292 14.27177,-15.343389 27.15499,-15.024832 l 5.55579,0.137375 1.23239,-4.642441 c 1.6936,-6.379847 3.51875,-9.99391 6.88114,-13.625694 3.88323,-4.194352 7.73244,-6.124451 16.23749,-8.141913 4.88962,-1.159855 7.48266,-2.051702 8.53164,-2.934364 0.82886,-0.697437 2.87554,-1.894598 4.54818,-2.660357 2.61239,-1.195991 3.55375,-1.355614 6.6768,-1.13216 4.75707,0.340367 6.6077,1.469709 12.2006,7.445369 5.59863,5.981788 10.60316,9.815923 14.13433,10.828787 1.48638,0.426346 6.66204,1.009657 11.50146,1.296248 12.82351,0.759407 19.94398,2.544873 26.23502,6.578455 4.48374,2.874809 7.13184,5.800985 16.54275,18.279866 4.85527,6.438098 11.36843,15.065234 14.4737,19.171412 9.15898,12.111159 13.68804,22.192771 16.53661,36.81025 3.63261,18.64078 3.1116,30.37116 -2.5818,58.12864 -3.9155,19.08953 -4.25849,28.6792 -1.42036,39.71178 2.70815,10.5273 10.20408,25.98622 19.36483,39.9362 2.74335,4.17758 3.63823,5.99838 3.63823,7.40268 v 1.86238 l -2.21463,-0.29704 c -2.71034,-0.36353 -3.33031,-1.07916 -8.64224,-9.97552 -13.51006,-22.62647 -18.54919,-35.82205 -19.34631,-50.66064 -0.44642,-8.31037 0.35599,-14.91073 4.0843,-33.59601 1.72641,-8.65231 3.40107,-18.65577 3.72146,-22.22993 0.9745,-10.8712 -0.75185,-27.63336 -3.99362,-38.77636 -3.11962,-10.723155 -7.29913,-17.442564 -23.49458,-37.772287 -3.10015,-3.89153 -6.49363,-8.395355 -7.54108,-10.008496 -4.0362,-6.216024 -4.70288,-7.06304 -7.95038,-10.100919 -6.45334,-6.036778 -13.27382,-8.25927 -27.91064,-9.094829 -5.18026,-0.29572 -10.82467,-0.903897 -12.54315,-1.351503 -5.08151,-1.323565 -10.1343,-4.317114 -14.33677,-8.493888 -4.86159,-4.831867 -6.34263,-5.851255 -10.07939,-6.937561 -6.7805,-1.971143 -10.66557,-0.531669 -13.45687,4.985964 -1.74834,3.455999 0.32984,11.468371 5.85181,22.561448 6.99579,14.053831 14.12437,23.59026 20.23693,27.072411 3.49504,1.991033 7.87015,3.075699 14.16078,3.510708 4.75551,0.328857 5.17971,0.272784 6.91982,-0.914627 1.01957,-0.695731 2.37744,-2.099148 3.0175,-3.118717 2.09589,-3.33859 3.22335,-4.253468 5.24182,-4.253468 1.82523,0 1.88516,0.06393 1.8746,1.999762 -0.016,2.937662 -4.64363,8.988505 -8.25871,10.798717 -1.46433,0.733246 -2.74579,1.376551 -2.84769,1.429563 -0.1019,0.05301 1.52898,2.614783 3.62417,5.692823 4.23098,6.215725 6.72162,8.729829 10.5906,10.690389 2.58132,1.30806 4.68571,3.63958 4.11641,4.56072 -0.16292,0.26362 -1.12506,0.75284 -2.13808,1.08717 -1.68865,0.55731 -2.12722,0.44829 -5.27241,-1.3106 -4.26514,-2.3852 -6.40488,-4.69133 -11.95995,-12.889987 -2.41161,-3.559257 -4.68382,-6.719591 -5.04935,-7.022952 -1.07296,-0.890475 -3.59162,-1.371106 -3.59162,-0.68538 0,0.330457 1.42593,5.146583 3.16872,10.70251 1.74279,5.555929 3.45348,11.549159 3.80154,13.318299 0.93558,4.75549 0.39165,13.94899 -1.04683,17.6934 -1.45876,3.79721 -5.71331,9.88836 -8.55636,12.24995 l -2.18208,1.81256 1.13716,4.49685 c 2.97949,11.78231 -0.3407,18.73375 -11.95011,25.01974 -3.0197,1.63504 -3.60455,1.76751 -6.81616,1.54389 -2.60165,-0.18116 -4.33838,-0.68452 -6.69443,-1.94028 l -3.18139,-1.69566 -2.90443,1.32057 c -7.74277,3.52046 -19.19598,3.00318 -27.96855,-1.26318 -1.84003,-0.89486 -7.50603,-5.09593 -13.33175,-9.88485 -22.66501,-18.63135 -28.41207,-23.0724 -33.69327,-26.03652 -2.96706,-1.6653 -5.74938,-3.02781 -6.18293,-3.02781 -0.43355,0 -1.64976,0.35996 -2.70271,0.79991 -3.51269,1.46769 -7.76172,0.72399 -11.88971,-2.08106 -1.083,-0.73592 -2.12326,-1.24275 -2.31168,-1.1263 -0.18842,0.11645 -1.58767,2.24924 -3.10944,4.73954 -3.33824,5.46282 -7.59793,10.8858 -14.67855,18.68715 l -5.30157,5.8412 1.38832,1.10139 c 0.76358,0.60576 3.93394,2.54121 7.04525,4.301 7.43548,4.20561 12.11827,7.81915 15.71001,12.12287 1.61314,1.93291 6.28795,8.75496 10.38845,15.16012 32.31993,50.48497 36.92888,56.57565 61.31408,81.02586 15.36494,15.4059 28.18815,26.60356 38.06735,33.24168 2.2526,1.51358 3.63316,2.87269 4.13284,4.06859 1.11239,2.66231 0.9763,2.89657 -1.68271,2.89657 -2.26621,0 -2.9399,-0.38486 -9.8258,-5.61326 -20.81886,-15.80756 -48.83712,-43.58811 -64.14945,-63.6052 -5.25434,-6.86875 -30.76842,-45.20515 -35.02941,-52.63373 -5.71229,-9.95878 -10.90841,-15.7063 -17.62318,-19.49333 -1.79191,-1.0106 -5.42498,-3.1148 -8.07351,-4.67598 -2.64852,-1.56118 -4.92399,-2.73001 -5.05659,-2.59741 -0.13261,0.13261 -1.4321,4.16961 -2.88776,8.97111 -5.51164,18.1802 -9.91713,27.34891 -21.36225,44.45911 -8.53791,12.76398 -11.47875,16.43509 -21.71115,27.10246 -12.64249,13.17992 -27.98478,30.23226 -50.46305,56.08765 -19.682589,22.63971 -18.719482,21.63118 -21.438034,22.44934 l -2.320274,0.6983 z M 327.47684,166.80929 c 2.02221,-0.42842 3.81841,-0.9206 3.99156,-1.09375 0.3586,-0.35861 -0.10248,-0.74476 -8.33837,-6.98333 -11.14472,-8.44195 -17.24442,-14.90331 -23.94037,-25.35979 -2.00908,-3.13742 -6.05259,-9.25669 -8.98558,-13.59839 -6.87978,-10.18414 -11.78723,-19.992101 -14.97967,-29.938119 -1.38033,-4.300444 -2.9557,-8.712511 -3.5008,-9.80459 -2.37585,-4.759834 -8.06121,-8.39858 -13.13702,-8.407955 -3.69543,-0.0068 -6.11244,1.267396 -10.81021,5.699035 -6.80568,6.420133 -10.10618,15.909026 -8.55422,24.593259 1.68454,9.42614 8.04868,17.37348 17.41892,21.75221 4.80649,2.24608 5.87958,3.06633 14.5763,11.1418 11.0335,10.2453 15.47633,14.00647 24.85267,21.03954 7.28252,5.46252 12.2807,8.79513 14.608,9.74011 5.01941,2.03808 10.91588,2.4663 16.79879,1.21997 z m 23.67106,-0.48616 c 7.35815,-3.75504 9.35361,-6.65741 9.41069,-13.68774 0.0352,-4.33407 -0.0795,-4.80695 -2.19812,-9.06559 -2.27714,-4.57719 -6.02544,-9.51611 -17.77728,-23.42408 -9.73863,-11.52539 -10.43473,-12.75683 -15.07953,-26.676993 -4.08365,-12.238407 -10.00745,-26.339499 -13.43636,-31.984108 -1.05227,-1.732221 -3.00145,-4.107389 -4.3315,-5.278153 -3.61605,-3.182967 -6.39904,-3.907332 -14.20058,-3.696165 -5.76995,0.156178 -6.8892,0.344741 -9.60768,1.618624 -1.70404,0.798519 -4.23676,2.632607 -5.67636,4.110595 -3.154,3.238093 -6.97818,8.967939 -6.97818,10.455554 0,0.596937 0.99549,2.398723 2.2122,4.003972 2.86258,3.776714 4.53755,7.498485 7.8089,17.351272 1.467,4.41837 3.74748,10.184232 5.06774,12.813022 2.36988,4.71872 18.56406,29.66906 23.02272,35.47106 3.5143,4.57312 19.25414,18.11609 30.46942,26.21667 4.77593,3.44957 7.24702,3.83729 11.29392,1.77206 z m 13.78453,-32.71234 c 2.91651,-3.13749 5.34779,-7.9436 6.10001,-12.05841 0.90803,-4.96707 -0.504,-11.48633 -6.25427,-28.875601 l -2.56036,-7.742734 -5.69636,-3.766453 c -10.12186,-6.692602 -15.67894,-13.758835 -23.656,-30.08033 -5.63279,-11.524995 -6.8421,-15.39913 -6.58361,-21.091219 l 0.19379,-4.267301 -1.60441,0.31613 c -3.06576,0.604075 -8.51648,3.640377 -11.00816,6.132055 -1.37842,1.378418 -3.14458,3.765973 -3.92481,5.305679 -1.57084,3.099896 -3.04088,9.215913 -2.54519,10.589085 0.17521,0.48537 2.19144,2.849087 4.4805,5.252703 3.46505,3.638441 4.64823,5.379662 7.06611,10.398764 4.02275,8.35056 12.2354,28.712439 13.40092,33.225321 1.53424,5.940581 2.47908,7.653791 7.80105,14.145021 2.75933,3.36558 8.45597,10.37873 12.6592,15.58478 5.30207,6.56706 7.96907,9.46554 8.7096,9.46554 0.58736,0 2.12626,-1.13912 3.42199,-2.53303 z m -118.72312,-7.61743 c 0,-0.30338 -2.21973,-3.43042 -4.93274,-6.94897 l -4.93275,-6.39737 -0.15798,3.81344 c -0.18323,4.4233 0.0104,4.74131 4.8595,7.9794 3.06302,2.0454 5.16397,2.67744 5.16397,1.5535 z m -47.33306,-7.55607 c 6.15607,-2.08972 11.07071,-9.39637 11.07071,-16.45896 0,-2.981134 -0.89024,-7.962836 -1.42297,-7.962836 -0.80897,0 -3.91889,2.072143 -6.88011,4.584224 -5.028,4.265382 -7.1026,5.548152 -8.9693,5.545912 -2.23674,-0.003 -4.70994,-1.6003 -6.19357,-4.00087 -1.04252,-1.686839 -1.29721,-1.847908 -1.72195,-1.088958 -0.27415,0.489878 -0.51489,2.983818 -0.53498,5.542098 -0.0476,6.05883 1.08649,9.52925 4.16335,12.74044 l 2.31595,2.41706 3.2172,-0.36398 c 1.76946,-0.20019 3.99951,-0.62955 4.95567,-0.95413 z m 0.65857,-24.821748 c 3.33957,-2.566362 6.0886,-4.957635 6.10896,-5.313939 0.0619,-1.083653 -2.20716,-1.931286 -4.99971,-1.867677 -2.8569,0.06508 -9.4129,2.909542 -11.1629,4.843275 -0.89815,0.992442 -0.8883,1.136542 0.22934,3.354135 1.4925,2.961424 2.05755,3.650318 2.99412,3.650318 0.41703,0 3.49062,-2.09975 6.83019,-4.666112 z"
     id="path139"
     inkscape:connector-curvature="0" /></svg>