<?xml version="1.0" encoding="UTF-8" standalone="no"?>
<svg
   xmlns:dc="http://purl.org/dc/elements/1.1/"
   xmlns:cc="http://creativecommons.org/ns#"
   xmlns:rdf="http://www.w3.org/1999/02/22-rdf-syntax-ns#"
   xmlns:svg="http://www.w3.org/2000/svg"
   xmlns="http://www.w3.org/2000/svg"
   xmlns:sodipodi="http://sodipodi.sourceforge.net/DTD/sodipodi-0.dtd"
   xmlns:inkscape="http://www.inkscape.org/namespaces/inkscape"
   version="1.1"
   x="0px"
   y="0px"
   viewBox="0 0 95.098 118.8725"
   enable-background="new 0 0 95.098 95.098"
   xml:space="preserve"
   id="svg3830"
   sodipodi:docname="noun_Plug_51024.svg"
   inkscape:version="0.92.3 (unknown)"><metadata
     id="metadata3836"><rdf:RDF><cc:Work
         rdf:about=""><dc:format>image/svg+xml</dc:format><dc:type
           rdf:resource="http://purl.org/dc/dcmitype/StillImage" /></cc:Work></rdf:RDF></metadata><defs
     id="defs3834" /><sodipodi:namedview
     pagecolor="#ffffff"
     bordercolor="#666666"
     borderopacity="1"
     objecttolerance="10"
     gridtolerance="10"
     guidetolerance="10"
     inkscape:pageopacity="0"
     inkscape:pageshadow="2"
     inkscape:window-width="1920"
     inkscape:window-height="970"
     id="namedview3832"
     showgrid="false"
     inkscape:zoom="6.6373637"
     inkscape:cx="47.549"
     inkscape:cy="65.462738"
     inkscape:window-x="0"
     inkscape:window-y="27"
     inkscape:window-maximized="1"
     inkscape:current-layer="svg3830" /><g
     id="g3824"><path
       d="M61.14,16.192c-0.786-0.786-2.155-0.789-2.947,0l-7.607,7.609c-0.384,0.384-0.601,0.895-0.61,1.44   c-0.062,3.888,1.148,7.688,3.426,10.815c-4.57,3.397-8.308,7.86-10.839,12.949c-2.313,4.442-3.153,9.612-2.357,14.604   c0.51,2.454,1.239,4.883,2.162,7.201c0.513,1.357,0.988,2.761,1.415,4.173c0.39,1.279,0.636,2.604,0.73,3.935   c0.18,2.608-0.756,5.186-2.535,7.037c-2.671,2.533-6.184,3.897-9.894,3.785c-0.549,0.004-1.011,0.419-1.027,0.971l-0.088,3.01   c-0.008,0.266,0.09,0.522,0.272,0.716c0.182,0.192,0.433,0.306,0.698,0.313c0.18,0.005,0.361,0.008,0.541,0.008c0,0,0,0,0,0   c4.863,0,9.479-1.853,13.022-5.241c2.828-2.909,4.288-6.9,4.006-10.949c-0.12-1.707-0.434-3.402-0.932-5.036   c-0.455-1.51-0.971-3.029-1.54-4.534c-0.816-2.048-1.46-4.181-1.903-6.289c-0.604-3.879,0.064-7.932,1.892-11.43   c2.292-4.616,5.708-8.611,9.904-11.593c3.118,2.403,6.964,3.719,10.912,3.719l0.289-0.002c0.543-0.008,1.055-0.223,1.442-0.609   l7.606-7.608c0.395-0.393,0.611-0.917,0.611-1.473c0.001-0.557-0.216-1.081-0.61-1.475L61.14,16.192z M75.767,33.769l-7.666,7.633   l-0.259,0.002c-3.734,0-7.365-1.325-10.223-3.731c-0.343-0.287-0.833-0.313-1.204-0.063c-4.76,3.215-8.626,7.635-11.171,12.762   c-2.015,3.855-2.756,8.347-2.077,12.696c0.476,2.271,1.153,4.516,2.005,6.653c0.547,1.445,1.047,2.921,1.49,4.391   c0.456,1.493,0.742,3.04,0.852,4.596c0.242,3.481-1.015,6.913-3.42,9.39c-3.019,2.886-6.942,4.527-11.097,4.653l0.029-1.014   c3.862-0.134,7.512-1.661,10.359-4.362c2.203-2.291,3.341-5.424,3.122-8.597c-0.106-1.481-0.379-2.954-0.812-4.374   c-0.439-1.453-0.929-2.899-1.464-4.316c-0.886-2.227-1.582-4.543-2.06-6.838c-0.721-4.525,0.048-9.256,2.173-13.337   c2.547-5.119,6.369-9.556,11.055-12.831c0.229-0.16,0.38-0.408,0.418-0.685c0.037-0.276-0.042-0.556-0.22-0.771   c-2.396-2.907-3.683-6.583-3.598-10.411l7.607-7.609L58.9,16.899l0.826,0.707L75.767,33.65V33.769z"
       id="path3820" /><path
       d="M91.241,11.764c-0.699-0.333-1.557-0.333-2.256,0c-0.103,0.049-0.196,0.115-0.276,0.196l-8.724,8.723l-6.814-6.814   l8.723-8.724c0.083-0.083,0.15-0.18,0.2-0.286c0.295-0.636,0.325-1.349,0.084-2.007s-0.725-1.183-1.36-1.478   c-0.688-0.318-1.521-0.319-2.209,0.001c-0.105,0.049-0.202,0.117-0.284,0.199l-8.724,8.723l-3.639-3.64   c-0.788-0.789-2.163-0.786-2.947,0l-3.658,3.657c-0.394,0.393-0.61,0.917-0.61,1.474s0.217,1.08,0.61,1.474l21.236,21.236   c0.394,0.394,0.917,0.61,1.474,0.61c0.556,0,1.079-0.216,1.474-0.61l3.656-3.657c0.395-0.394,0.611-0.917,0.611-1.475   s-0.217-1.081-0.61-1.474l-3.64-3.639l8.724-8.723c0.081-0.081,0.146-0.174,0.195-0.277C93.098,13.951,92.543,12.386,91.241,11.764   z M90.716,14.269l-9.279,9.278c-0.188,0.188-0.293,0.442-0.293,0.707s0.105,0.52,0.293,0.707l4.347,4.346c0,0,0,0.119,0,0.119   l-3.656,3.657c-0.017,0.017-0.037,0.025-0.061,0.025l-21.296-21.26c-0.032-0.032-0.032-0.087,0-0.119l3.658-3.657   c0,0,0.01,0,0.024,0c0.035,0,0.095,0.001,0.095,0l4.346,4.347c0.188,0.188,0.441,0.293,0.707,0.293s0.52-0.105,0.707-0.293   l9.274-9.274c0.133-0.028,0.271-0.012,0.395,0.045c0.151,0.07,0.266,0.194,0.323,0.351c0.041,0.113,0.049,0.232,0.023,0.347   l-9.273,9.275c-0.391,0.391-0.391,1.023,0,1.414l8.229,8.229c0.391,0.391,1.023,0.391,1.414,0l9.279-9.278   c0.134-0.031,0.283-0.016,0.408,0.043C90.647,13.697,90.781,13.992,90.716,14.269z"
       id="path3822" /></g><path
     style="fill:#008000;stroke-width:0.15066223"
     d="m 31.346029,94.385556 c -0.203269,-0.224609 -0.249344,-0.614377 -0.249344,-2.109272 0,-2.354721 -0.0027,-2.35143 2.056607,-2.486386 5.29734,-0.347156 9.698213,-3.286909 10.959166,-7.320647 0.911507,-2.91588 0.563802,-5.480169 -1.52357,-11.23615 -1.890732,-5.213742 -2.428053,-7.41967 -2.550537,-10.471025 -0.195231,-4.863667 0.978881,-9.152353 3.815324,-13.936256 2.106564,-3.552898 5.19312,-7.161777 8.222292,-9.613711 0.7253,-0.587087 1.318727,-1.126586 1.318727,-1.198886 0,-0.0723 -0.194517,-0.414862 -0.43226,-0.761248 -1.689218,-2.461158 -2.882309,-6.337806 -2.882309,-9.365334 0,-1.130501 0.038,-1.289436 0.436538,-1.825878 0.513972,-0.691815 7.603434,-7.740504 8.147067,-8.100211 0.459805,-0.304241 1.389679,-0.318793 1.932567,-0.03024 0.491598,0.261287 16.652202,16.443925 16.888661,16.911686 0.213758,0.422858 0.213651,1.329894 -1.51e-4,1.752425 -0.237352,0.468948 -7.96188,8.214906 -8.451369,8.474815 -0.536154,0.284688 -2.564633,0.282109 -4.213079,-0.0054 -2.358693,-0.411321 -4.943944,-1.459632 -6.936411,-2.81269 -0.491191,-0.333562 -0.976555,-0.574441 -1.078588,-0.535286 -0.419819,0.1611 -2.667357,2.055608 -3.86663,3.259283 -3.626666,3.639978 -6.432433,8.220847 -7.461767,12.182539 -1.043897,4.017738 -0.796837,7.305066 0.919409,12.233491 2.518352,7.231782 2.869115,8.554637 3.027353,11.417268 0.206155,3.729518 -1.168989,7.585778 -3.667415,10.284377 -1.809568,1.95455 -4.914948,3.860658 -7.703251,4.72832 -2.62852,0.817941 -6.205134,1.118903 -6.706975,0.564376 z m 3.517838,-1.750063 c 2.862589,-0.431536 5.588196,-1.573694 7.884406,-3.30394 1.511724,-1.139117 2.654058,-2.521629 3.50136,-4.237527 0.972264,-1.968961 1.300024,-3.373421 1.300922,-5.574502 0.0012,-2.796859 -0.437912,-4.585467 -2.662798,-10.847681 -0.47105,-1.325827 -1.067781,-3.224171 -1.326068,-4.218542 -0.441609,-1.700134 -0.469563,-1.969665 -0.468765,-4.519867 6.17e-4,-1.95891 0.07116,-3.04659 0.254077,-3.917218 1.058621,-5.03874 4.38449,-10.648782 8.80947,-14.859725 1.776493,-1.690563 4.307476,-3.596398 4.776083,-3.596398 0.199406,0 0.887897,0.380903 1.537836,0.850796 2.331962,1.685965 5.339385,2.792661 8.169589,3.006314 l 1.355206,0.102304 3.886424,-3.800995 c 2.137534,-2.090547 3.905126,-3.879966 3.927982,-3.976483 0.05259,-0.222082 -16.649832,-16.912781 -16.787199,-16.775416 -0.05586,0.05586 0.02434,0.240702 0.178238,0.410753 0.277275,0.306386 0.245274,0.343736 -3.537202,4.128396 l -3.817011,3.819212 0.108008,1.258703 c 0.139917,1.630558 0.419448,2.949346 0.921946,4.349624 0.550123,1.532988 0.841305,2.091751 1.9778,3.795292 0.708595,1.062141 0.949193,1.545585 0.879104,1.766416 -0.05307,0.167225 -0.753513,0.794819 -1.556531,1.394653 -2.996034,2.23797 -6.563371,6.23354 -8.586958,9.617763 -2.651109,4.433682 -3.702655,7.994225 -3.69206,12.50134 0.0074,3.130987 0.459943,5.170815 2.215955,9.987506 1.841859,5.052169 2.464811,7.813289 2.301557,10.201233 -0.22325,3.265507 -1.669786,6.056792 -4.158786,8.024939 -2.28333,1.805515 -5.060016,2.978325 -7.8378,3.310513 l -1.514021,0.181057 v 0.569559 c 0,0.668443 -0.06407,0.656934 1.959236,0.351921 z"
     id="path3856"
     inkscape:connector-curvature="0" /><path
     style="fill:#008000;stroke-width:0.15066223"
     d="M 81.041213,34.712437 C 80.79262,34.555537 75.729215,29.555688 69.789202,23.601661 58.079813,11.864646 58.546338,12.400148 58.954117,11.164563 c 0.106532,-0.322795 0.934152,-1.2686138 2.3245,-2.6564811 3.127757,-3.1221773 3.247496,-3.1258774 6.188201,-0.1912247 1.087594,1.0853552 2.043915,1.9733728 2.125159,1.9733728 0.08124,0 2.15588,-2.0073273 4.610302,-4.4607272 4.358511,-4.3566944 4.47867,-4.4625401 5.152142,-4.5384503 0.943037,-0.1062938 1.368691,0.027677 2.05343,0.6462975 0.704549,0.6365178 1.012953,1.6328447 0.766473,2.4761543 -0.115856,0.39639 -1.260716,1.6337355 -4.634937,5.009362 l -4.481075,4.4829427 3.387546,3.390058 c 1.86315,1.864531 3.454453,3.390057 3.536228,3.390057 0.08178,0 2.186648,-2.03394 4.677493,-4.519867 l 4.528808,-4.519867 h 0.802423 c 0.54638,0 0.989675,0.105242 1.389264,0.329824 0.678818,0.381517 0.948313,0.743118 1.171462,1.571824 0.338002,1.255244 0.245941,1.380011 -4.628187,6.272411 l -4.466091,4.482834 1.977279,1.995642 c 1.087504,1.097603 2.052399,2.14373 2.144211,2.324727 0.235624,0.464499 0.207343,1.037907 -0.07888,1.59934 -0.283638,0.556356 -3.312143,3.700002 -4.183659,4.342716 -0.705886,0.520567 -1.592295,0.577816 -2.274994,0.146929 z m 4.74586,-5.363058 c 0,-0.08514 -1.01697,-1.170081 -2.259933,-2.410973 -1.901252,-1.898082 -2.259934,-2.327336 -2.259934,-2.70459 0,-0.387344 0.64643,-1.096015 4.74586,-5.20282 2.610224,-2.61492 4.745861,-4.858094 4.745861,-4.984834 0,-0.29657 -0.296564,-0.592025 -0.594247,-0.592025 -0.127962,0 -2.377554,2.144112 -4.999096,4.764693 -3.933024,3.931583 -4.83856,4.764693 -5.178916,4.764693 -0.339519,0 -1.182156,-0.769333 -4.763818,-4.349397 -3.748522,-3.746852 -4.351337,-4.411395 -4.351337,-4.796913 0,-0.386151 0.650754,-1.09944 4.74586,-5.2019112 2.610223,-2.6149183 4.74586,-4.8580932 4.74586,-4.9848332 0,-0.2957418 -0.296306,-0.5920254 -0.592071,-0.5920254 -0.126764,0 -2.410781,2.176503 -5.075592,4.8366735 -4.295529,4.2880493 -4.885466,4.8246853 -5.200891,4.7309813 -0.19568,-0.05813 -1.373547,-1.115966 -2.617482,-2.350746 -1.243936,-1.2347805 -2.329721,-2.2450553 -2.412857,-2.2450553 -0.08314,0 -0.997614,0.8505224 -2.032173,1.8900498 l -1.881017,1.8900495 10.772349,10.677725 10.77235,10.677725 1.845612,-1.83083 c 1.015087,-1.006957 1.845612,-1.900494 1.845612,-1.985637 z"
     id="path3858"
     inkscape:connector-curvature="0" /><path
     style="fill:#ffffff;stroke-width:0.15066223"
     d="m 43.902974,115.93058 c 0,-0.0795 0.101697,-0.18358 0.225993,-0.23127 0.180101,-0.0691 0.225994,-0.39364 0.225994,-1.59808 0,-1.25733 0.03881,-1.51135 0.230927,-1.51135 0.196302,0 0.22454,0.25415 0.188328,1.69495 l -0.0426,1.69495 -0.414321,0.0477 c -0.227877,0.0262 -0.414321,-0.0174 -0.414321,-0.0969 z"
     id="path3860"
     inkscape:connector-curvature="0" /><path
     style="fill:#ffffff;stroke-width:0.15066223"
     d="m 44.174166,115.72366 c 0.09944,-0.0994 0.188816,-0.62484 0.19862,-1.16764 0.03246,-1.79683 0.246478,-2.0153 0.265673,-0.27119 0.01732,1.57366 0.0084,1.61962 -0.313631,1.61962 -0.2578,0 -0.29128,-0.0402 -0.150662,-0.18079 z"
     id="path3862"
     inkscape:connector-curvature="0" /><path
     style="fill:#ffffff;stroke-width:0.15066223"
     d="m 44.174166,115.72366 c 0.103054,-0.10306 0.187252,-0.63753 0.195813,-1.24297 0.02575,-1.82113 0.254685,-1.98642 0.271288,-0.19586 0.01458,1.57281 0.0054,1.61962 -0.316439,1.61962 -0.2578,0 -0.29128,-0.0402 -0.150662,-0.18079 z"
     id="path3864"
     inkscape:connector-curvature="0" /><path
     style="fill:#ffffff;stroke-width:0.15066223"
     d=""
     id="path3866"
     inkscape:connector-curvature="0" /><path
     style="fill:#ffffff;stroke-width:0.15066223"
     d="m 46.501897,113.39 c 0.145013,-0.0379 0.382306,-0.0379 0.527318,0 0.145012,0.0379 0.02637,0.0689 -0.263659,0.0689 -0.290025,0 -0.408671,-0.031 -0.263659,-0.0689 z"
     id="path3868"
     inkscape:connector-curvature="0" /><path
     style="fill:#ffffff;stroke-width:0.15066223"
     d="m 46.465491,113.34702 c -0.172074,-0.10868 -0.183273,-0.1834 -0.04779,-0.31888 0.212732,-0.21273 0.69896,-0.0603 0.614629,0.19272 -0.08217,0.2465 -0.299652,0.29491 -0.566836,0.12616 z"
     id="path3870"
     inkscape:connector-curvature="0" /><path
     style="fill:#ffffff;stroke-width:0.15066223"
     d=""
     id="path3872"
     inkscape:connector-curvature="0" /><path
     style="fill:#ffffff;stroke-width:0.15066223"
     d="m 45.861583,114.69915 c -0.383401,-0.3834 -0.403729,-1.3499 -0.03767,-1.7908 0.145013,-0.17466 0.479509,-0.35924 0.743324,-0.41018 0.386909,-0.0747 0.554434,-0.0178 0.866308,0.29402 0.212654,0.21266 0.386643,0.52532 0.386643,0.69482 0,0.2731 -0.0943,0.30817 -0.828642,0.30817 -0.849987,0 -0.955923,0.0957 -0.737192,0.66566 0.106817,0.27836 0.908387,0.32738 0.997187,0.061 0.03306,-0.0992 0.141408,-0.12648 0.245864,-0.0619 0.337068,0.20832 -0.124095,0.54058 -0.750301,0.54058 -0.383318,0 -0.687814,-0.10361 -0.885525,-0.30133 z m 1.400919,-1.50163 c -0.09722,-0.37176 -0.591635,-0.54032 -0.880831,-0.30031 -0.412194,0.34209 -0.254429,0.59665 0.36978,0.59665 0.511065,0 0.578343,-0.039 0.511051,-0.29634 z"
     id="path3874"
     inkscape:connector-curvature="0" /><path
     style="fill:#ffffff;stroke-width:0.15066223"
     d="m 4.7307947,107.92859 c 0,-0.1702 0.3517395,-0.46122 0.5574503,-0.46122 0.3566256,0 0.2029613,0.4155 -0.1807947,0.48886 -0.2071606,0.0396 -0.3766556,0.0272 -0.3766556,-0.0276 z"
     id="path3876"
     inkscape:connector-curvature="0" /></svg>